<?xml version="1.0" encoding="utf-8"?>
<!-- Generator: Adobe Illustrator 25.2.0, SVG Export Plug-In . SVG Version: 6.00 Build 0)  -->
<svg version="1.1" id="Capa_1" xmlns="http://www.w3.org/2000/svg" xmlns:xlink="http://www.w3.org/1999/xlink" x="0px" y="0px"
	 viewBox="0 0 389.1 487.5" style="enable-background:new 0 0 389.1 487.5;" xml:space="preserve">
<style type="text/css">
	.st0{fill:#2A7AE4;stroke:#2A7AE4;stroke-width:0.5;stroke-miterlimit:10;}
</style>
<path class="st0" d="M172.4,239.5l-14.6-5.7c-2.4,2.2-6.1,4.6-8.5,8c-4.8,3.4-8.5,3.4-13.4,0c-7.3-6.8-15.8-14.8-23.1-21.6
	c-3.6-4.6-3.6-8,0-12.5c1.2-1.1,2.4-2.2,3.6-3.4c1.2-1.1,2.4-2.2,3.6-3.4c-2.4-4.6-3.6-9.1-6.1-13.7c-3.6,0-7.3,0-12.2,0
	c-6.1,0-8.5-3.4-9.7-9.1c0-10.2,0-20.5,0-31.8c0-5.7,3.6-8,9.7-9.1c2.4,0,3.6,0,6.1,0h6.1c2.4-4.6,3.6-9.1,6.1-12.5
	c-2.4-2.2-4.8-5.7-8.5-8c-2.4-4.6-2.4-8,1.2-12.5c7.3-6.8,15.8-14.8,23.1-21.6c4.8-3.4,8.5-3.4,13.4,0c2.4,2.2,4.8,5.7,8.5,8
	l14.6-5.7c0-3.4,0-6.8,0-11.4c0-5.7,3.6-8,9.7-9.1c11,0,21.9,0,34.1,0c6.1,0,8.5,3.4,9.7,9.1c0,2.2,0,3.4,0,5.7v5.7l13.4,5.7
	c2.4-2.2,6.1-4.6,8.5-8c4.8-3.4,8.5-3.4,13.4,0c7.3,6.8,15.8,14.8,23.1,21.6c3.6,4.6,3.6,8,0,12.5c-2.4,2.2-6.1,4.6-8.5,6.8
	c2.4,4.6,3.6,9.1,6.1,13.7c3.6,0,7.3,0,12.2,0c6.1,0,8.5,3.4,9.7,9.1c0,10.2,0,20.5,0,31.8c0,5.7-3.6,8-9.7,9.1c-2.4,0-3.6,0-6.1,0
	h-6.1c-2.4,4.6-3.6,9.1-6.1,12.5c2.4,2.2,4.8,5.7,8.5,8c3.6,4.6,3.6,8,0,12.5c-7.3,6.8-15.8,14.8-23.1,21.6c-4.8,3.4-9.7,4.6-13.4,0
	c-6.1-6.8-12.2-8-19.5-3.4c-1.2,0-2.4,1.1-3.6,1.1c0,3.4,0,6.8,0,11.4c0,5.7-3.6,8-9.7,9.1c-11,0-21.9,0-34.1,0
	c-6.1,0-8.5-3.4-9.7-9.1C172.4,247.5,172.4,243,172.4,239.5z M252.7,99.6c-7.3,8-15.8,9.1-25.5,3.4c-1.2,0-2.4-1.1-2.4-1.1
	c-11-3.4-18.3-9.1-17-20.5h-17c-1.2,12.5-3.6,15.9-14.6,19.4c-1.2,0-3.6,1.1-4.8,1.1c-9.7,5.7-19.5,5.7-27.9-2.2l-11,10.2
	c2.4,4.6,6.1,9.1,6.1,13.7c0,10.2-4.8,19.4-12.2,26.2c-3.6,3.4-9.7,3.4-14.6,5.7V169c3.6,1.1,7.3,1.1,11,2.2
	c9.7,3.4,18.3,25.1,14.6,33c-1.2,3.4-3.6,5.7-6.1,8l11,11.4c2.4-2.2,4.8-3.4,7.3-4.6c11-4.6,34.1,4.6,37.7,14.8
	c1.2,2.2,1.2,5.7,1.2,8h18.3c0-9.1,2.4-15.9,12.2-18.3c7.3-2.2,14.6-8,23.1-5.7c2.4,1.1,4.8,2.2,7.3,3.4c1.2,0,1.2,1.1,2.4,2.2
	c4.8-3.4,8.5-6.8,12.2-11.4c-7.3-5.7-9.7-12.5-4.8-20.5c1.2-3.4,3.6-8,4.8-11.4c1.2-3.4,3.6-5.7,6.1-8c2.4-2.2,6.1-3.4,9.7-3.4
	c1.2,0,2.4,0,3.6,0v-15.9c-12.2,1.1-19.5-5.7-21.9-15.9c0-1.1,0-1.1-1.2-2.2c-6.1-9.1-6.1-18.3,3.6-25.1L252.7,99.6z"/>
<path class="st0" d="M164,365.9c-13.4-25.1-11-43.2,7.3-56.9c7.3-5.7,17-9.1,26.7-9.1s19.5,3.4,26.7,9.1
	c18.3,13.7,20.7,31.8,7.3,56.9c2.4,1.1,4.8,1.1,7.3,2.2c8.5,2.2,14.6,8,19.5,14.8c4.8,6.8,7.3,14.8,7.3,22.7c0,23.9,0,47.8,0,72.8
	c0,6.8-3.6,9.1-9.7,9.1c-38.9,0-79.1,0-118,0c-7.3,0-9.7-3.4-9.7-10.2c0-23.9,0-46.7,0-70.6c0-18.3,12.2-34.2,31.7-39.9
	C161.5,365.9,162.8,365.9,164,365.9z M250.3,470.6c0-22.7,0-44.4,0-67.1c0-12.5-12.2-21.6-25.5-22.7c-18.3,0-35.3,0-53.6,0
	c-6.1,0-13.4,2.2-18.3,6.8c-4.8,4.6-7.3,10.2-7.3,17c0,21.6,0,42.1,0,63.7c0,1.1,0,1.1,0,2.2C145.7,470.6,250.3,470.6,250.3,470.6z
	 M224.8,340.8c0-4.6-1.2-9.1-4.8-13.7c-2.4-4.6-7.3-6.8-12.2-9.1s-9.7-2.2-14.6-1.1c-4.8,1.1-9.7,3.4-13.4,6.8
	c-3.6,3.4-6.1,8-7.3,12.5c-1.2,4.6,0,9.1,1.2,13.7c2.4,4.6,4.8,8,9.7,11.4c4.8,2.2,9.7,4.6,14.6,4.6c3.6,0,7.3-1.1,9.7-2.2
	c3.6-1.1,6.1-3.4,8.5-5.7c2.4-2.2,4.8-4.6,6.1-8C223.7,346.7,224.8,343.1,224.8,340.8L224.8,340.8z"/>
<path class="st0" d="M363.5,33.6c-1.2,2.2-2.4,3.4-3.6,5.7c-3.6,3.4-6.1,6.8-9.7,10.2c-2.4,2.2-3.6,4.6-2.4,8
	c1.2,4.6,2.4,9.1,2.4,13.7c0,2.2-1.2,6.8-3.6,8c-2.4,1.1-6.1,1.1-8.5,1.1c-4.8-1.1-8.5-4.6-13.4-6.8c-2.4-1.1-4.8-1.1-7.3,0
	c-4.8,2.2-8.5,4.6-13.4,6.8c-2.4,1.1-7.3,1.1-9.7,0s-3.6-5.7-3.6-9.1c0-3.4,0-8,1.2-11.4c1.2-5.7,0-9.1-3.6-12.5
	c-3.6-2.2-6.1-5.7-8.5-8c-4.8-5.7-2.4-12.5,4.8-13.7c4.8-1.1,9.7-2.2,15.8-2.2c1.2,0,2.4,0,3.6-1.1c0-1.1,1.2-2.2,1.2-3.4
	c1.2-4.6,3.6-9.1,6.1-12.5c1.2-2.2,4.8-5.7,8.5-5.7c2.4,0,6.1,2.2,8.5,5.7c3.6,4.6,4.8,12.5,8.5,15.9c4.8,3.4,12.2,2.2,18.3,3.4
	C359.8,25.5,362.3,27.9,363.5,33.6z M319.7,27.9c-1.2,8-8.5,9.1-17,11.4c8.5,4.6,9.7,11.4,7.3,18.3c6.1-4.6,12.2-4.6,19.5,0
	c-3.6-8,0-13.7,6.1-19.4C328.2,38.1,322.1,35.8,319.7,27.9L319.7,27.9z"/>
<path class="st0" d="M94.6,73.4c0,8,0,14.8,0,22.7c0,6.8-3.6,9.1-9.7,9.1c-15.8,0-32.9,0-48.6,0c-7.3,0-9.7-3.4-9.7-9.1
	c0-14.8,0-30.7,0-45.5c0-6.8,3.6-9.1,9.7-9.1c15.8,0,32.9,0,48.6,0c7.3,0,9.7,3.4,9.7,9.1C94.6,57.5,94.6,65.4,94.6,73.4z
	 M42.3,88.2h34.1V56.3H42.3V88.2z"/>
<path class="st0" d="M42.3,268c-11,0-21.9,0-32.9,0c-3.6,0-7.3-2.2-8.5-4.6c-1.2-2.2-1.2-6.8,0-9.1c11-15.9,21.9-30.7,32.9-46.7
	c4.8-6.8,12.2-6.8,15.8,0c11,14.8,21.9,30.7,32.9,45.5c2.4,3.4,3.6,6.8,1.2,10.2c-2.4,2.2-6.1,3.4-9.7,4.6
	C64.2,268,53.2,268,42.3,268z M60.5,250.9c-6.1-9.1-12.2-17-18.3-26.2L24,250.9H60.5z"/>
<path class="st0" d="M108,40.3l-9.7-12.5C140.9-0.7,211.4-10.9,271,14.1L264.9,29C210.2,8.5,157.8,11.9,108,40.3z"/>
<path class="st0" d="M353.7,258.9c-7.3,0-13.4-2.2-19.5-5.7c-6.1-3.4-9.7-9.1-12.2-14.8c-2.4-5.7-3.6-12.5-2.4-18.3
	c1.2-6.8,4.8-12.5,9.7-17s11-8,18.3-9.1c7.3-1.1,13.4,0,19.5,2.2c6.1,2.2,12.2,6.8,15.8,12.5c3.6,5.7,6.1,11.4,6.1,18.3
	c0,4.6-1.2,8-2.4,12.5c-1.2,3.4-4.8,8-7.3,10.2c-2.4,2.2-7.3,5.7-11,6.8C363.5,258.9,358.6,258.9,353.7,258.9z M354.9,243
	c3.6,0,7.3-1.1,9.7-2.2c2.4-2.2,4.8-4.6,6.1-6.8c1.2-3.4,1.2-6.8,1.2-9.1c-1.2-3.4-2.4-5.7-4.8-8c-2.4-2.2-6.1-3.4-8.5-4.6
	c-3.6-1.1-7.3,0-9.7,1.1c-3.6,1.1-6.1,3.4-7.3,5.7c-2.4,2.2-2.4,5.7-2.4,9.1c0,4.6,2.4,8,4.8,11.4C345.2,241.8,350.1,243,354.9,243
	L354.9,243z"/>
<path class="st0" d="M362.3,184.9c3.6-28.5-1.2-58-14.6-84.2l15.8-6.8c15.8,29.6,20.7,60.3,17,93.3L362.3,184.9z"/>
<path class="st0" d="M324.5,262.3l12.2,10.2c-13.4,19.4-58.4,47.8-85.1,52.3c-1.2-4.6-3.6-10.2-4.8-14.8
	C277.1,301,303.9,284,324.5,262.3L324.5,262.3z"/>
<path class="st0" d="M82.5,273.7c18.3,17,41.4,28.5,65.7,36.4l-4.8,14.8c-26.7-8-52.4-21.6-73-39.9L82.5,273.7z"/>
<path class="st0" d="M24.1,118.9l15.8,4.6c-1.2,11.4-4.8,22.7-4.8,34.2c-1.2,11.4,1.2,22.7,1.2,35.3l-15.8,2.2
	C14.3,170.2,15.5,143.9,24.1,118.9L24.1,118.9z"/>
<path class="st0" d="M146.9,162.1c0-9.1,2.4-19.4,8.5-27.3c6.1-8,13.4-14.8,23.1-18.3c9.7-3.4,19.5-4.6,30.4-2.2
	c9.7,2.2,19.5,6.8,26.7,13.7c7.3,6.8,12.2,15.9,14.6,25.1c2.4,9.1,1.2,19.4-2.4,28.5c-3.6,9.1-11,17-19.5,21.6
	c-8.5,5.7-18.3,8-29.2,8c-13.4,0-26.7-4.6-36.5-13.7C151.8,187.2,146.9,174.6,146.9,162.1L146.9,162.1z M198,194
	c7.3,0,13.4-2.2,19.5-5.7c6.1-3.4,9.7-9.1,12.2-14.8c2.4-5.7,3.6-12.5,2.4-19.4c-1.2-6.8-4.8-12.5-9.7-17c-4.8-4.6-11-8-18.3-9.1
	c-7.3-1.1-13.4,0-19.5,2.2c-6.1,2.2-12.2,6.8-15.8,12.5c-3.6,5.7-6.1,11.4-6.1,18.3c0,4.6,1.2,8,2.4,12.5c1.2,3.4,4.8,8,7.3,10.2
	c3.6,3.4,7.3,5.7,11,6.8C189.5,194,194.3,194,198,194L198,194z"/>
</svg>
