<?xml version="1.0" encoding="utf-8"?>
<!-- Generator: Adobe Illustrator 25.2.0, SVG Export Plug-In . SVG Version: 6.00 Build 0)  -->
<svg version="1.1" id="Capa_1" xmlns="http://www.w3.org/2000/svg" xmlns:xlink="http://www.w3.org/1999/xlink" x="0px" y="0px"
	 viewBox="0 0 32 43" style="enable-background:new 0 0 32 43;" xml:space="preserve">
<style type="text/css">
	.st0{fill:#2A7AE4;stroke:#2A7AE4;stroke-width:0.5;stroke-miterlimit:10;}
</style>
<path class="st0" d="M14.2,21.3L13,20.8c-0.2,0.2-0.5,0.4-0.7,0.7c-0.4,0.3-0.7,0.3-1.1,0c-0.6-0.6-1.3-1.3-1.9-1.9
	c-0.3-0.4-0.3-0.7,0-1.1c0.1-0.1,0.2-0.2,0.3-0.3c0.1-0.1,0.2-0.2,0.3-0.3c-0.2-0.4-0.3-0.8-0.5-1.2c-0.3,0-0.6,0-1,0
	c-0.5,0-0.7-0.3-0.8-0.8c0-0.9,0-1.8,0-2.8c0-0.5,0.3-0.7,0.8-0.8c0.2,0,0.3,0,0.5,0h0.5c0.2-0.4,0.3-0.8,0.5-1.1
	c-0.2-0.2-0.4-0.5-0.7-0.7C9,10.1,9,9.8,9.3,9.4c0.6-0.6,1.3-1.3,1.9-1.9c0.4-0.3,0.7-0.3,1.1,0c0.2,0.2,0.4,0.5,0.7,0.7l1.2-0.5
	c0-0.3,0-0.6,0-1c0-0.5,0.3-0.7,0.8-0.8c0.9,0,1.8,0,2.8,0c0.5,0,0.7,0.3,0.8,0.8c0,0.2,0,0.3,0,0.5v0.5l1.1,0.5
	c0.2-0.2,0.5-0.4,0.7-0.7c0.4-0.3,0.7-0.3,1.1,0c0.6,0.6,1.3,1.3,1.9,1.9c0.3,0.4,0.3,0.7,0,1.1c-0.2,0.2-0.5,0.4-0.7,0.6
	c0.2,0.4,0.3,0.8,0.5,1.2c0.3,0,0.6,0,1,0c0.5,0,0.7,0.3,0.8,0.8c0,0.9,0,1.8,0,2.8c0,0.5-0.3,0.7-0.8,0.8c-0.2,0-0.3,0-0.5,0h-0.5
	c-0.2,0.4-0.3,0.8-0.5,1.1c0.2,0.2,0.4,0.5,0.7,0.7c0.3,0.4,0.3,0.7,0,1.1c-0.6,0.6-1.3,1.3-1.9,1.9c-0.4,0.3-0.8,0.4-1.1,0
	c-0.5-0.6-1-0.7-1.6-0.3c-0.1,0-0.2,0.1-0.3,0.1c0,0.3,0,0.6,0,1c0,0.5-0.3,0.7-0.8,0.8c-0.9,0-1.8,0-2.8,0c-0.5,0-0.7-0.3-0.8-0.8
	C14.2,22,14.2,21.6,14.2,21.3z M20.8,9c-0.6,0.7-1.3,0.8-2.1,0.3c-0.1,0-0.2-0.1-0.2-0.1c-0.9-0.3-1.5-0.8-1.4-1.8h-1.4
	c-0.1,1.1-0.3,1.4-1.2,1.7c-0.1,0-0.3,0.1-0.4,0.1c-0.8,0.5-1.6,0.5-2.3-0.2l-0.9,0.9c0.2,0.4,0.5,0.8,0.5,1.2c0,0.9-0.4,1.7-1,2.3
	c-0.3,0.3-0.8,0.3-1.2,0.5v1.2c0.3,0.1,0.6,0.1,0.9,0.2c0.8,0.3,1.5,2.2,1.2,2.9c-0.1,0.3-0.3,0.5-0.5,0.7l0.9,1
	c0.2-0.2,0.4-0.3,0.6-0.4c0.9-0.4,2.8,0.4,3.1,1.3c0.1,0.2,0.1,0.5,0.1,0.7H17c0-0.8,0.2-1.4,1-1.6c0.6-0.2,1.2-0.7,1.9-0.5
	c0.2,0.1,0.4,0.2,0.6,0.3c0.1,0,0.1,0.1,0.2,0.2c0.4-0.3,0.7-0.6,1-1c-0.6-0.5-0.8-1.1-0.4-1.8c0.1-0.3,0.3-0.7,0.4-1
	c0.1-0.3,0.3-0.5,0.5-0.7c0.2-0.2,0.5-0.3,0.8-0.3c0.1,0,0.2,0,0.3,0v-1.4c-1,0.1-1.6-0.5-1.8-1.4c0-0.1,0-0.1-0.1-0.2
	c-0.5-0.8-0.5-1.6,0.3-2.2L20.8,9z"/>
<path class="st0" d="M13.5,32.4c-1.1-2.2-0.9-3.8,0.6-5c0.6-0.5,1.4-0.8,2.2-0.8c0.8,0,1.6,0.3,2.2,0.8c1.5,1.2,1.7,2.8,0.6,5
	c0.2,0.1,0.4,0.1,0.6,0.2c0.7,0.2,1.2,0.7,1.6,1.3s0.6,1.3,0.6,2c0,2.1,0,4.2,0,6.4c0,0.6-0.3,0.8-0.8,0.8c-3.2,0-6.5,0-9.7,0
	c-0.6,0-0.8-0.3-0.8-0.9c0-2.1,0-4.1,0-6.2c0-1.6,1-3,2.6-3.5C13.3,32.4,13.4,32.4,13.5,32.4z M20.6,41.6c0-2,0-3.9,0-5.9
	c0-1.1-1-1.9-2.1-2c-1.5,0-2.9,0-4.4,0c-0.5,0-1.1,0.2-1.5,0.6c-0.4,0.4-0.6,0.9-0.6,1.5c0,1.9,0,3.7,0,5.6c0,0.1,0,0.1,0,0.2H20.6z
	 M18.5,30.2c0-0.4-0.1-0.8-0.4-1.2c-0.2-0.4-0.6-0.6-1-0.8c-0.4-0.2-0.8-0.2-1.2-0.1c-0.4,0.1-0.8,0.3-1.1,0.6
	c-0.3,0.3-0.5,0.7-0.6,1.1c-0.1,0.4,0,0.8,0.1,1.2c0.2,0.4,0.4,0.7,0.8,1c0.4,0.2,0.8,0.4,1.2,0.4c0.3,0,0.6-0.1,0.8-0.2
	c0.3-0.1,0.5-0.3,0.7-0.5c0.2-0.2,0.4-0.4,0.5-0.7C18.4,30.7,18.5,30.4,18.5,30.2L18.5,30.2z"/>
<path class="st0" d="M29.9,3.2c-0.1,0.2-0.2,0.3-0.3,0.5c-0.3,0.3-0.5,0.6-0.8,0.9c-0.2,0.2-0.3,0.4-0.2,0.7
	c0.1,0.4,0.2,0.8,0.2,1.2c0,0.2-0.1,0.6-0.3,0.7c-0.2,0.1-0.5,0.1-0.7,0.1c-0.4-0.1-0.7-0.4-1.1-0.6c-0.2-0.1-0.4-0.1-0.6,0
	c-0.4,0.2-0.7,0.4-1.1,0.6c-0.2,0.1-0.6,0.1-0.8,0c-0.2-0.1-0.3-0.5-0.3-0.8c0-0.3,0-0.7,0.1-1c0.1-0.5,0-0.8-0.3-1.1
	c-0.3-0.2-0.5-0.5-0.7-0.7c-0.4-0.5-0.2-1.1,0.4-1.2c0.4-0.1,0.8-0.2,1.3-0.2c0.1,0,0.2,0,0.3-0.1C25,2.1,25.1,2,25.1,1.9
	c0.1-0.4,0.3-0.8,0.5-1.1c0.1-0.2,0.4-0.5,0.7-0.5c0.2,0,0.5,0.2,0.7,0.5c0.3,0.4,0.4,1.1,0.7,1.4c0.4,0.3,1,0.2,1.5,0.3
	C29.6,2.5,29.8,2.7,29.9,3.2z M26.3,2.7c-0.1,0.7-0.7,0.8-1.4,1c0.7,0.4,0.8,1,0.6,1.6c0.5-0.4,1-0.4,1.6,0c-0.3-0.7,0-1.2,0.5-1.7
	C27,3.6,26.5,3.4,26.3,2.7L26.3,2.7z"/>
<path class="st0" d="M7.8,6.7c0,0.7,0,1.3,0,2c0,0.6-0.3,0.8-0.8,0.8c-1.3,0-2.7,0-4,0c-0.6,0-0.8-0.3-0.8-0.8c0-1.3,0-2.7,0-4
	c0-0.6,0.3-0.8,0.8-0.8c1.3,0,2.7,0,4,0c0.6,0,0.8,0.3,0.8,0.8C7.8,5.3,7.8,6,7.8,6.7z M3.5,8h2.8V5.2H3.5V8z"/>
<path class="st0" d="M3.5,23.8c-0.9,0-1.8,0-2.7,0c-0.3,0-0.6-0.2-0.7-0.4C0,23.2,0,22.8,0.1,22.6c0.9-1.4,1.8-2.7,2.7-4.1
	c0.4-0.6,1-0.6,1.3,0c0.9,1.3,1.8,2.7,2.7,4c0.2,0.3,0.3,0.6,0.1,0.9c-0.2,0.2-0.5,0.3-0.8,0.4C5.3,23.8,4.4,23.8,3.5,23.8z M5,22.3
	c-0.5-0.8-1-1.5-1.5-2.3L2,22.3H5z"/>
<path class="st0" d="M8.9,3.8L8.1,2.7c3.5-2.5,9.3-3.4,14.2-1.2l-0.5,1.3C17.3,1,13,1.3,8.9,3.8z"/>
<path class="st0" d="M29.1,23c-0.6,0-1.1-0.2-1.6-0.5c-0.5-0.3-0.8-0.8-1-1.3c-0.2-0.5-0.3-1.1-0.2-1.6c0.1-0.6,0.4-1.1,0.8-1.5
	c0.4-0.4,0.9-0.7,1.5-0.8c0.6-0.1,1.1,0,1.6,0.2c0.5,0.2,1,0.6,1.3,1.1c0.3,0.5,0.5,1,0.5,1.6c0,0.4-0.1,0.7-0.2,1.1
	c-0.1,0.3-0.4,0.7-0.6,0.9s-0.6,0.5-0.9,0.6C29.9,23,29.5,23,29.1,23z M29.2,21.6c0.3,0,0.6-0.1,0.8-0.2c0.2-0.2,0.4-0.4,0.5-0.6
	c0.1-0.3,0.1-0.6,0.1-0.8c-0.1-0.3-0.2-0.5-0.4-0.7c-0.2-0.2-0.5-0.3-0.7-0.4c-0.3-0.1-0.6,0-0.8,0.1c-0.3,0.1-0.5,0.3-0.6,0.5
	c-0.2,0.2-0.2,0.5-0.2,0.8c0,0.4,0.2,0.7,0.4,1C28.4,21.5,28.8,21.6,29.2,21.6L29.2,21.6z"/>
<path class="st0" d="M29.8,16.5c0.3-2.5-0.1-5.1-1.2-7.4l1.3-0.6c1.3,2.6,1.7,5.3,1.4,8.2L29.8,16.5z"/>
<path class="st0" d="M26.7,23.3l1,0.9c-1.1,1.7-4.8,4.2-7,4.6c-0.1-0.4-0.3-0.9-0.4-1.3C22.8,26.7,25,25.2,26.7,23.3L26.7,23.3z"/>
<path class="st0" d="M6.8,24.3c1.5,1.5,3.4,2.5,5.4,3.2l-0.4,1.3c-2.2-0.7-4.3-1.9-6-3.5L6.8,24.3z"/>
<path class="st0" d="M2,10.7l1.3,0.4c-0.1,1-0.4,2-0.4,3c-0.1,1,0.1,2,0.1,3.1l-1.3,0.2C1.2,15.2,1.3,12.9,2,10.7L2,10.7z"/>
<path class="st0" d="M12.1,14.5c0-0.8,0.2-1.7,0.7-2.4c0.5-0.7,1.1-1.3,1.9-1.6c0.8-0.3,1.6-0.4,2.5-0.2c0.8,0.2,1.6,0.6,2.2,1.2
	c0.6,0.6,1,1.4,1.2,2.2c0.2,0.8,0.1,1.7-0.2,2.5c-0.3,0.8-0.9,1.5-1.6,1.9c-0.7,0.5-1.5,0.7-2.4,0.7c-1.1,0-2.2-0.4-3-1.2
	C12.5,16.7,12.1,15.6,12.1,14.5L12.1,14.5z M16.3,17.3c0.6,0,1.1-0.2,1.6-0.5c0.5-0.3,0.8-0.8,1-1.3c0.2-0.5,0.3-1.1,0.2-1.7
	c-0.1-0.6-0.4-1.1-0.8-1.5c-0.4-0.4-0.9-0.7-1.5-0.8c-0.6-0.1-1.1,0-1.6,0.2c-0.5,0.2-1,0.6-1.3,1.1c-0.3,0.5-0.5,1-0.5,1.6
	c0,0.4,0.1,0.7,0.2,1.1c0.1,0.3,0.4,0.7,0.6,0.9c0.3,0.3,0.6,0.5,0.9,0.6C15.6,17.3,16,17.3,16.3,17.3L16.3,17.3z"/>
</svg>
