<?xml version="1.0" encoding="utf-8"?>
<!-- Generator: Adobe Illustrator 25.2.0, SVG Export Plug-In . SVG Version: 6.00 Build 0)  -->
<svg version="1.1" id="Capa_1" xmlns="http://www.w3.org/2000/svg" xmlns:xlink="http://www.w3.org/1999/xlink" x="0px" y="0px"
	 viewBox="0 0 729.2 914" style="enable-background:new 0 0 729.2 914;" xml:space="preserve">
<style type="text/css">
	.st0{fill:#2A7AE4;stroke:#2A7AE4;stroke-width:0.5;stroke-miterlimit:10;}
</style>
<path class="st0" d="M323.2,449.1l-27.4-10.7c-4.5,4.1-11.4,8.6-15.9,15c-9,6.4-15.9,6.4-25.1,0c-13.7-12.7-29.6-27.7-43.3-40.5
	c-6.7-8.6-6.7-15,0-23.4c2.2-2.1,4.5-4.1,6.7-6.4c2.2-2.1,4.5-4.1,6.7-6.4c-4.5-8.6-6.7-17.1-11.4-25.7c-6.7,0-13.7,0-22.9,0
	c-11.4,0-15.9-6.4-18.2-17.1c0-19.1,0-38.4,0-59.6c0-10.7,6.7-15,18.2-17.1c4.5,0,6.7,0,11.4,0h11.4c4.5-8.6,6.7-17.1,11.4-23.4
	c-4.5-4.1-9-10.7-15.9-15c-4.5-8.6-4.5-15,2.2-23.4c13.7-12.7,29.6-27.7,43.3-40.5c9-6.4,15.9-6.4,25.1,0c4.5,4.1,9,10.7,15.9,15
	l27.4-10.7c0-6.4,0-12.7,0-21.4c0-10.7,6.7-15,18.2-17.1c20.6,0,41.1,0,63.9,0c11.4,0,15.9,6.4,18.2,17.1c0,4.1,0,6.4,0,10.7v10.7
	l25.1,10.7c4.5-4.1,11.4-8.6,15.9-15c9-6.4,15.9-6.4,25.1,0c13.7,12.7,29.6,27.7,43.3,40.5c6.7,8.6,6.7,15,0,23.4
	c-4.5,4.1-11.4,8.6-15.9,12.7c4.5,8.6,6.7,17.1,11.4,25.7c6.7,0,13.7,0,22.9,0c11.4,0,15.9,6.4,18.2,17.1c0,19.1,0,38.4,0,59.6
	c0,10.7-6.7,15-18.2,17.1c-4.5,0-6.7,0-11.4,0h-11.4c-4.5,8.6-6.7,17.1-11.4,23.4c4.5,4.1,9,10.7,15.9,15c6.7,8.6,6.7,15,0,23.4
	c-13.7,12.7-29.6,27.7-43.3,40.5c-9,6.4-18.2,8.6-25.1,0c-11.4-12.7-22.9-15-36.6-6.4c-2.2,0-4.5,2.1-6.7,2.1c0,6.4,0,12.7,0,21.4
	c0,10.7-6.7,15-18.2,17.1c-20.6,0-41.1,0-63.9,0c-11.4,0-15.9-6.4-18.2-17.1C323.2,464.1,323.2,455.6,323.2,449.1z M473.7,186.8
	c-13.7,15-29.6,17.1-47.8,6.4c-2.2,0-4.5-2.1-4.5-2.1c-20.6-6.4-34.3-17.1-31.9-38.4h-31.9c-2.2,23.4-6.7,29.8-27.4,36.4
	c-2.2,0-6.7,2.1-9,2.1c-18.2,10.7-36.6,10.7-52.3-4.1l-20.6,19.1c4.5,8.6,11.4,17.1,11.4,25.7c0,19.1-9,36.4-22.9,49.1
	c-6.7,6.4-18.2,6.4-27.4,10.7v25.3c6.7,2.1,13.7,2.1,20.6,4.1c18.2,6.4,34.3,47.1,27.4,61.9c-2.2,6.4-6.7,10.7-11.4,15l20.6,21.4
	c4.5-4.1,9-6.4,13.7-8.6c20.6-8.6,63.9,8.6,70.7,27.7c2.2,4.1,2.2,10.7,2.2,15h34.3c0-17.1,4.5-29.8,22.9-34.3
	c13.7-4.1,27.4-15,43.3-10.7c4.5,2.1,9,4.1,13.7,6.4c2.2,0,2.2,2.1,4.5,4.1c9-6.4,15.9-12.7,22.9-21.4c-13.7-10.7-18.2-23.4-9-38.4
	c2.2-6.4,6.7-15,9-21.4c2.2-6.4,6.7-10.7,11.4-15c4.5-4.1,11.4-6.4,18.2-6.4c2.2,0,4.5,0,6.7,0v-29.8c-22.9,2.1-36.6-10.7-41.1-29.8
	c0-2.1,0-2.1-2.2-4.1c-11.4-17.1-11.4-34.3,6.7-47.1L473.7,186.8z"/>
<path class="st0" d="M307.4,686c-25.1-47.1-20.6-81,13.7-106.7c13.7-10.7,31.9-17.1,50.1-17.1s36.6,6.4,50.1,17.1
	C455.5,605,460,639,434.9,686c4.5,2.1,9,2.1,13.7,4.1c15.9,4.1,27.4,15,36.6,27.7c9,12.7,13.7,27.7,13.7,42.6c0,44.8,0,89.6,0,136.5
	c0,12.7-6.7,17.1-18.2,17.1c-72.9,0-148.3,0-221.2,0c-13.7,0-18.2-6.4-18.2-19.1c0-44.8,0-87.5,0-132.4c0-34.3,22.9-64.1,59.4-74.8
	C302.8,686,305.2,686,307.4,686z M469.2,882.3c0-42.6,0-83.2,0-125.8c0-23.4-22.9-40.5-47.8-42.6c-34.3,0-66.2,0-100.5,0
	c-11.4,0-25.1,4.1-34.3,12.7c-9,8.6-13.7,19.1-13.7,31.9c0,40.5,0,78.9,0,119.4c0,2.1,0,2.1,0,4.1
	C273.1,882.3,469.2,882.3,469.2,882.3z M421.4,639c0-8.6-2.2-17.1-9-25.7c-4.5-8.6-13.7-12.7-22.9-17.1c-9.2-4.3-18.2-4.1-27.4-2.1
	c-9,2.1-18.2,6.4-25.1,12.7c-6.7,6.4-11.4,15-13.7,23.4c-2.2,8.6,0,17.1,2.2,25.7c4.5,8.6,9,15,18.2,21.4c9,4.1,18.2,8.6,27.4,8.6
	c6.7,0,13.7-2.1,18.2-4.1c6.7-2.1,11.4-6.4,15.9-10.7c4.5-4.1,9-8.6,11.4-15C419.4,650,421.4,643.3,421.4,639L421.4,639z"/>
<path class="st0" d="M681.4,63.1c-2.2,4.1-4.5,6.4-6.7,10.7c-6.7,6.4-11.4,12.7-18.2,19.1c-4.5,4.1-6.7,8.6-4.5,15
	c2.2,8.6,4.5,17.1,4.5,25.7c0,4.1-2.2,12.7-6.7,15c-4.5,2.1-11.4,2.1-15.9,2.1c-9-2.1-15.9-8.6-25.1-12.7c-4.5-2.1-9-2.1-13.7,0
	c-9,4.1-15.9,8.6-25.1,12.7c-4.5,2.1-13.7,2.1-18.2,0c-4.5-2.1-6.7-10.7-6.7-17.1c0-6.4,0-15,2.2-21.4c2.2-10.7,0-17.1-6.7-23.4
	c-6.7-4.1-11.4-10.7-15.9-15c-9-10.7-4.5-23.4,9-25.7c9-2.1,18.2-4.1,29.6-4.1c2.2,0,4.5,0,6.7-2.1c0-2.1,2.2-4.1,2.2-6.4
	c2.2-8.6,6.7-17.1,11.4-23.4c2.2-4.1,9-10.7,15.9-10.7c4.5,0,11.4,4.1,15.9,10.7c6.7,8.6,9,23.4,15.9,29.8c9,6.4,22.9,4.1,34.3,6.4
	C674.5,47.9,679.2,52.4,681.4,63.1z M599.3,52.4c-2.2,15-15.9,17.1-31.9,21.4c15.9,8.6,18.2,21.4,13.7,34.3
	c11.4-8.6,22.9-8.6,36.6,0c-6.7-15,0-25.7,11.4-36.4C615.3,71.5,603.8,67.2,599.3,52.4L599.3,52.4z"/>
<path class="st0" d="M177.3,137.7c0,15,0,27.7,0,42.6c0,12.7-6.7,17.1-18.2,17.1c-29.6,0-61.7,0-91.1,0c-13.7,0-18.2-6.4-18.2-17.1
	c0-27.7,0-57.6,0-85.3c0-12.7,6.7-17.1,18.2-17.1c29.6,0,61.7,0,91.1,0c13.7,0,18.2,6.4,18.2,17.1
	C177.3,107.9,177.3,122.7,177.3,137.7z M79.3,165.4h63.9v-59.8H79.3V165.4z"/>
<path class="st0" d="M79.3,502.5c-20.6,0-41.1,0-61.7,0c-6.7,0-13.7-4.1-15.9-8.6c-2.2-4.1-2.2-12.7,0-17.1
	c20.6-29.8,41.1-57.6,61.7-87.5c9-12.7,22.9-12.7,29.6,0c20.6,27.7,41.1,57.6,61.7,85.3c4.5,6.4,6.7,12.7,2.2,19.1
	c-4.5,4.1-11.4,6.4-18.2,8.6C120.4,502.5,99.7,502.5,79.3,502.5z M113.4,470.4c-11.4-17.1-22.9-31.9-34.3-49.1L45,470.4H113.4z"/>
<path class="st0" d="M202.5,75.6l-18.2-23.4c79.9-53.4,212-72.5,323.8-25.7l-11.4,27.9C394.1,16,295.8,22.4,202.5,75.6z"/>
<path class="st0" d="M663.1,485.4c-13.7,0-25.1-4.1-36.6-10.7c-11.4-6.4-18.2-17.1-22.9-27.7c-4.5-10.7-6.7-23.4-4.5-34.3
	c2.2-12.7,9-23.4,18.2-31.9c9.2-8.4,20.6-15,34.3-17.1s25.1,0,36.6,4.1c11.4,4.1,22.9,12.7,29.6,23.4c6.7,10.7,11.4,21.4,11.4,34.3
	c0,8.6-2.2,15-4.5,23.4c-2.2,6.4-9,15-13.7,19.1c-4.5,4.1-13.7,10.7-20.6,12.7C681.4,485.4,672.3,485.4,663.1,485.4z M665.3,455.6
	c6.7,0,13.7-2.1,18.2-4.1c4.5-4.1,9-8.6,11.4-12.7c2.2-6.4,2.2-12.7,2.2-17.1c-2.2-6.4-4.5-10.7-9-15c-4.5-4.1-11.4-6.4-15.9-8.6
	c-6.7-2.1-13.7,0-18.2,2.1c-6.7,2.1-11.4,6.4-13.7,10.7c-4.5,4.1-4.5,10.7-4.5,17.1c0,8.6,4.5,15,9,21.4
	C647.1,453.4,656.3,455.6,665.3,455.6L665.3,455.6z"/>
<path class="st0" d="M679.2,346.7c6.7-53.4-2.2-108.7-27.4-157.8l29.6-12.7c29.6,55.5,38.8,113,31.9,174.9L679.2,346.7z"/>
<path class="st0" d="M608.3,491.8l22.9,19.1c-25.1,36.4-109.5,89.6-159.5,98c-2.2-8.6-6.7-19.1-9-27.7
	C519.5,564.3,569.7,532.5,608.3,491.8L608.3,491.8z"/>
<path class="st0" d="M154.7,513.2c34.3,31.9,77.6,53.4,123.2,68.2l-9,27.7c-50.1-15-98.2-40.5-136.8-74.8L154.7,513.2z"/>
<path class="st0" d="M45.2,223l29.6,8.6c-2.2,21.4-9,42.6-9,64.1c-2.2,21.4,2.2,42.6,2.2,66.2L38.4,366
	C26.8,319.1,29.1,269.8,45.2,223L45.2,223z"/>
<path class="st0" d="M275.4,304c0-17.1,4.5-36.4,15.9-51.2c11.4-15,25.1-27.7,43.3-34.3c18.2-6.4,36.6-8.6,57-4.1
	c18.2,4.1,36.6,12.7,50.1,25.7c13.7,12.7,22.9,29.8,27.4,47.1c4.5,17.1,2.2,36.4-4.5,53.4c-6.7,17.1-20.6,31.9-36.6,40.5
	c-15.9,10.7-34.3,15-54.7,15c-25.1,0-50.1-8.6-68.4-25.7C284.6,351,275.4,327.4,275.4,304L275.4,304z M371.2,363.8
	c13.7,0,25.1-4.1,36.6-10.7c11.4-6.4,18.2-17.1,22.9-27.7c4.5-10.7,6.7-23.4,4.5-36.4c-2.2-12.7-9-23.4-18.2-31.9
	c-9-8.6-20.6-15-34.3-17.1c-13.7-2.1-25.1,0-36.6,4.1c-11.4,4.1-22.9,12.7-29.6,23.4c-6.7,10.7-11.4,21.4-11.4,34.3
	c0,8.6,2.2,15,4.5,23.4c2.2,6.4,9,15,13.7,19.1c6.7,6.4,13.7,10.7,20.6,12.7C355.2,363.8,364.2,363.8,371.2,363.8L371.2,363.8z"/>
</svg>
