<svg xmlns="http://www.w3.org/2000/svg" viewBox="0 0 491.97 557.12"><defs><style>.cls-1{fill:#9a4f96;}.cls-2{fill:#662179;}.cls-3{fill:#803787;}</style></defs><g id="Capa_2" data-name="Capa 2"><g id="Capa_1-2" data-name="Capa 1"><path class="cls-1" d="M.23,155.61c1.41-14.29,8.43-24.93,20.84-32.1Q90.72,83.28,160.33,43c21-12.13,41.91-24.34,62.93-36.4a54.19,54.19,0,0,1,17.12-6C253.53-1.93,263.63,3.7,274,9.71q99,57.23,198.06,114.44c8.77,5.06,15.09,12.18,18.25,21.93a8,8,0,0,1-3.15,3.25c-6.6,3.79-13.07,7.78-19.61,11.68q-8.62,5.16-17.29,10.25c-15,8.75-29.94,17.56-45,26.18-3.48,2-6.66,4.61-10.66,5.64-.46-.8-.92-1.6-1.4-2.39-25.07-41.38-61.27-67.31-108.37-78.17-7.72-1.78-15.63-2.07-23.4-3.45a41,41,0,0,0-17.39,0c-7,1.32-14.09,1.51-21.06,3-39.88,8.21-72.34,28.4-96.82,60.82C99.5,218.22,89.43,258.13,95.72,302c3.25,22.65,11.56,43.42,23.81,62.67-7.24,4.29-14.47,8.61-21.73,12.87C73.17,392,48.56,406.51,23.85,420.82c-3.57,2.07-6.68,5.2-11.1,5.66-7-5-9.78-12.52-11.85-20.4a41.64,41.64,0,0,1-.69-5c1.09-1.27.61-2.79.61-4.19q0-118.54,0-237.08C.82,158.39,1.3,156.88.23,155.61Z"/><path class="cls-2" d="M12.75,426.48c4.42-.46,7.53-3.59,11.1-5.66C48.56,406.51,73.17,392,97.8,377.58c7.26-4.26,14.49-8.58,21.73-12.87.71.94,1.45,1.86,2.12,2.83a160.77,160.77,0,0,0,58.13,51.73,158.63,158.63,0,0,0,67.47,18.18c6.93.3,13.85-.2,20.76-.19,6.38,0,12.79-2.26,19.16-3.66a157.13,157.13,0,0,0,73.28-38.12c8.78-8,16.76-16.7,23.08-26.83.93,2.51,3,3.75,5.2,5,6.58,3.82,13.14,7.67,19.65,11.61,14,8.49,27.88,17.33,42.13,25.45,9.5,5.41,18.52,11.6,28.23,16.61-3.53,4.3-8.64,6.34-13.26,9Q366.35,493.74,267.11,551c-14.07,8.13-28.32,8.12-42.38,0Q125.31,493.7,26,436.27C22.1,434,18.08,432,14.58,429.2,13.7,428.48,12.42,428,12.75,426.48Z"/><path class="cls-3" d="M478.74,427.33c-9.71-5-18.73-11.2-28.23-16.61-14.25-8.12-28.09-17-42.13-25.45-6.51-3.94-13.07-7.79-19.65-11.61-2.18-1.26-4.27-2.5-5.2-5L322.16,332c-1.09-.66-2-1.81-3.54-1.32-1.17-.08-2.46.25-3.4-.68-3-3-7-4.68-10.52-6.86-14.37-8.86-29.08-17.19-43.49-26-3.95-2.41-8.33-4.29-11.62-7.73a4,4,0,0,1,2-1.79c8-4.74,16-9.53,24-14.23,15-8.8,30.12-17.5,45.1-26.39,2.54-1.51,5.54-2.48,7.32-5.12,1.87.12,3.18-1.14,4.62-2Q354.82,227,376.9,213.93c6-3.52,12.18-6.65,17.72-10.85,4-1,7.18-3.65,10.66-5.64,15.06-8.62,30-17.43,45-26.18Q459,166.19,467.57,161c6.54-3.9,13-7.89,19.61-11.68a8,8,0,0,0,3.15-3.25c1.5,6.59,1.65,13.28,1.64,20q-.06,115.14-.06,230.3C491.9,408.48,488.06,419.12,478.74,427.33ZM438.15,261.71h0c-3.05-1.74-6.36-.63-9.54-.75-2.36-.1-3.1-.82-3.18-3.2-.12-3.17,1-6.49-.76-9.54l-.13-.15.12-.17c-1.31-2.28-3.54-1.29-5.27-1.18-4,.24-8.21-1.23-12.09.94a.52.52,0,0,1-.06.58c-1.72,2.81-.69,5.9-.69,8.84s-.67,4.07-3.75,3.86a82.7,82.7,0,0,0-11.46,0c-3.26.24-3.95-1-4-4.06,0-2.85,1.26-6-.95-8.6l-.56-.76c-4.38-2-9-.43-13.49-.87-1.1-.11-2.44-.39-3.06,1.09a.36.36,0,0,1-.13.51c-1.43,1.74-.67,3.79-.69,5.69-.1,6.93,0,6.81-6.86,7-2.18.06-4.73-1.23-6.58,1.09a.28.28,0,0,1,0,.44,29.29,29.29,0,0,0,.06,15.84l.74.6c2.95,2.16,6.3.72,9.45.93,2.32.15,3.32.72,3.21,3.18-.16,3.54,0,7.09,0,10.64,0,5.23,0,5.06-5.35,5.31-2.7.12-5.73-1.33-8.08,1.23l0,.28c-1.63,5.4-1.07,10.84-.26,16.28,0,.15.43.24.66.36l.16-.12.16.13c2.92,1.71,6.13.76,9.17.75,2.82,0,3.73.95,3.54,3.66s0,5.25-.06,7.88c-.06,2,.69,2.86,2.76,2.82,4.33-.09,8.67-.07,13,0,2.34,0,3.36-1,3.3-3.34-.07-2.49.1-5-.05-7.49s.54-3.6,3.26-3.48c4.2.19,8.41.16,12.62,0,2.39-.09,3.14.74,3.22,3.15.12,3.18-1,6.52.79,9.57l.61.58c5.42,1.84,10.9,1.16,16.37.34.15,0,.25-.43.37-.66l0-.26c1.81-3.05.66-6.37.78-9.55.1-2.37.79-3.13,3.2-3.21,3.17-.12,6.49,1,9.53-.79l.46-.8c2-.93,1.21-2.79,1.06-4.12-.42-3.86,1.4-7.92-1-11.6l-.57-.76c-2.61-2-5.63-.93-8.37-.8-3.62.17-4.59-1.11-4.33-4.51a69.23,69.23,0,0,0,0-10.68c-.24-3.2.95-4,4-4,2.86,0,6,1.22,8.64-1q.21-6.56.41-13.12c1.21,3.8-.16,7.81,1,11.62.23-4.46.21-8.92.24-13.37C439.75,262.79,439.5,261.89,438.15,261.71Z"/><path class="cls-3" d="M.23,155.61c1.07,1.27.59,2.78.59,4.19q0,118.55,0,237.08c0,1.4.48,2.92-.61,4.19-.07-1.32-.2-2.63-.2-3.95Q0,278.34,0,159.55C0,158.23.15,156.92.23,155.61Z"/><path class="cls-1" d="M261.3,119.07l-17.4,0a35.69,35.69,0,0,1,5.59-.94A36.19,36.19,0,0,1,261.3,119.07Z"/><path class="cls-1" d="M186,325.12c-7.16-9.12-11.13-19.67-13.23-30.89-8.71-46.6,21.45-90.17,68.18-98,23.25-3.88,44.25,2.35,62.71,16.93,10,7.91,18.55,17.15,24.39,28.66-1.78,2.64-4.78,3.61-7.32,5.12-15,8.89-30.07,17.59-45.1,26.39-8,4.7-16,9.49-24,14.23a4,4,0,0,0-2,1.79,5.39,5.39,0,0,0-2.62.7c-14.12,8.32-28.2,16.73-42.43,24.86C198.42,318.44,192.93,323.12,186,325.12Z"/><path class="cls-2" d="M186,325.12c6.94-2,12.43-6.68,18.55-10.17,14.23-8.13,28.31-16.54,42.43-24.86a5.39,5.39,0,0,1,2.62-.7c3.29,3.44,7.67,5.32,11.62,7.73,14.41,8.8,29.12,17.13,43.49,26,3.54,2.18,7.48,3.86,10.52,6.86.94.93,2.23.6,3.4.68-5.2,7.84-12.42,13.5-20.28,18.34-36.72,22.64-83.46,14.19-110-19.84C187.37,327.93,186.17,326.81,186,325.12Z"/><path class="cls-2" d="M355.75,317.14c.39,0,.79-.05,1.18-.05,3.95,0,8.95-1.35,11.54.55s.66,7.13.7,10.9c0,2.2.83,2.68,2.8,2.63,3.82-.11,7.65-.08,11.48,0,1.92,0,3.1-.47,2.67-2.69a1.7,1.7,0,0,1,0-.39c.29-3.63-1.58-8.5.75-10.52,2-1.78,6.8-.48,10.36-.46,3.27,0,7.72-1.1,9.51.58,2.08,1.95.47,6.43.64,9.81.05,1.05-.05,2.11-.07,3.17-1.82-3.05-.67-6.39-.79-9.57-.08-2.41-.83-3.24-3.22-3.15-4.21.15-8.42.18-12.62,0-2.72-.12-3.42,1-3.26,3.48s0,5,.05,7.49c.06,2.33-1,3.37-3.3,3.34-4.34-.06-8.68-.08-13,0-2.07,0-2.82-.83-2.76-2.82.08-2.63-.13-5.27.06-7.88s-.72-3.67-3.54-3.66C361.88,317.9,358.67,318.85,355.75,317.14Z"/><path class="cls-2" d="M386.17,260.93q.1-6.31.22-12.64c2.21,2.64.92,5.75.95,8.6,0,3,.73,4.3,4,4.06a82.7,82.7,0,0,1,11.46,0c3.08.21,3.74-1,3.75-3.86s-1-6,.69-8.84c0,3.8,0,7.62.2,11.41.11,1.91-.7,2.14-2.28,2.11-6.17-.11-12.34-.11-18.51-.16Z"/><path class="cls-2" d="M355.8,278.92c2.63,0,5.26-.12,7.88-.11,5.56,0,5.56,0,5.56,5.78a104.15,104.15,0,0,0,.09,11c.4,3.81-1.12,4.55-4.52,4.33a35.15,35.15,0,0,0-9.82.25c2.35-2.56,5.38-1.11,8.08-1.23,5.34-.25,5.35-.08,5.35-5.31,0-3.55-.12-7.1,0-10.64.11-2.46-.89-3-3.21-3.18C362.1,279.64,358.75,281.08,355.8,278.92Z"/><path class="cls-2" d="M438.13,299.83c-3.43,0-6.87-.09-10.29.1-2.38.13-3.49-.32-3.35-3.11.26-5,.18-10,0-15-.06-2.23.24-3.3,2.9-3.07,3.54.32,7.12.11,10.68.13-2.65,2.2-5.78,1-8.64,1-3.08,0-4.27.81-4,4a69.23,69.23,0,0,1,0,10.68c-.26,3.4.71,4.68,4.33,4.51C432.5,298.9,435.52,297.86,438.13,299.83Z"/><path class="cls-2" d="M438.6,316.31a101.84,101.84,0,0,1,.1-15.72c2.36,3.68.54,7.74,1,11.6C439.81,313.52,440.61,315.38,438.6,316.31Z"/><path class="cls-2" d="M369.15,248.26c0,3.78,0,7.56.12,11.33.08,1.75-.48,2.2-2.18,2.19-4,0-8,.16-12.07.26,1.85-2.32,4.4-1,6.58-1.09,6.81-.19,6.76-.07,6.86-7C368.48,252.05,367.72,250,369.15,248.26Z"/><path class="cls-2" d="M438.14,261.71c-3.8,0-7.59,0-11.39.07-1.66.05-2.3-.39-2.22-2.18.17-3.78.1-7.58.13-11.38,1.75,3.05.64,6.37.76,9.54.08,2.38.82,3.1,3.18,3.2C431.78,261.08,435.09,260,438.14,261.71Z"/><path class="cls-2" d="M424.63,330.66c0-3.81,0-7.61-.1-11.41-.06-1.7.45-2.26,2.2-2.2,3.8.14,7.6.05,11.41.06-3,1.82-6.36.67-9.53.79-2.41.08-3.1.84-3.2,3.21C425.29,324.29,426.44,327.61,424.63,330.66Z"/><path class="cls-2" d="M438.51,265.73l-.36-4c1.35.18,1.6,1.08,1.6,2.27,0,4.45,0,8.91-.24,13.37C438.35,273.54,439.72,269.53,438.51,265.73Z"/><path class="cls-2" d="M424.65,247.9c-5.78-.65-11.57-.25-17.36-.24,3.88-2.17,8.06-.7,12.09-.94C421.11,246.61,423.34,245.62,424.65,247.9Z"/><path class="cls-2" d="M385.83,247.53l-16.55.22c.62-1.48,2-1.2,3.06-1.09C376.83,247.1,381.45,245.53,385.83,247.53Z"/><path class="cls-2" d="M355,300.49q.2,8.31.4,16.64c-.23-.12-.64-.21-.66-.36C354,311.33,353.4,305.89,355,300.49Z"/><path class="cls-2" d="M407.92,331.24l16.73-.32c-.11.23-.21.64-.36.66C418.82,332.4,413.34,333.08,407.92,331.24Z"/><path class="cls-2" d="M355,262.48l.06,15.84A29.29,29.29,0,0,1,355,262.48Z"/><path class="cls-2" d="M386.58,279c6.29-.07,12.58-.08,18.86-.24,1.58,0,2,.42,2,2-.08,5.8-.06,11.6,0,17.4,0,1.38-.42,1.8-1.81,1.77-6.32-.12-12.64-.14-19-.2l-.24-1.43a120.06,120.06,0,0,1,0-17.69Zm.87,9.83c0,9.69,0,9.69,9.59,9.69h.39c9,0,9,0,9-9.07,0-9.9,0-9.9-9.77-9.9C387.45,279.56,387.45,279.56,387.45,288.84Z"/><path class="cls-3" d="M386.58,279l-.18,1.57C386,280,385.77,279.44,386.58,279Z"/><path class="cls-3" d="M386.4,298.27l.24,1.43C385.68,299.37,386.11,298.81,386.4,298.27Z"/><path class="cls-3" d="M386.17,260.93l.47.67C386.19,261.58,385.88,261.46,386.17,260.93Z"/><path class="cls-3" d="M387.45,288.84c0-9.28,0-9.28,9.22-9.28,9.77,0,9.77,0,9.77,9.9,0,9.08,0,9.08-9,9.07H397C387.46,298.53,387.46,298.53,387.45,288.84Z"/></g></g></svg>