<svg xmlns="http://www.w3.org/2000/svg" viewBox="0 0 414.83 414.66"><defs><style>.cls-1{fill:#2979e1;}.cls-2{fill:#fcfcfc;}.cls-3{fill:#2a79e3;}</style></defs><g id="Capa_2" data-name="Capa 2"><g id="Capa_1-2" data-name="Capa 1"><path class="cls-1" d="M414.71,198.46c1.91,60.3-18.23,114.06-62.93,157.59-42,40.9-93.09,60.41-151.66,58.48-56.06-1.85-104-23.43-142.73-64C17.3,308.53-1.88,257.8.15,199.77c2-55.93,23.52-103.8,64-142.4C106.17,17.29,156.9-1.89,214.93.15c55.88,2,103.63,23.6,142.34,63.91C392.69,101,411.36,145.48,414.71,198.46Z"/><path class="cls-2" d="M207.31,49.58c86.93-.09,157.8,70.73,157.8,157.76S294.27,365.12,207.32,365.11,49.53,294.17,49.56,207.29,120.43,49.51,207.31,49.58Z"/><path class="cls-3" d="M327.82,164.71c0,.36-.22.51-.39.68q-8,7.81-15.95,15.64c-3.12,3.06-6.21,6.15-9.32,9.21l-16.9,16.67-27,26.59-27.17,26.74-26.87,26.45-27.33,26.89c-.51.5-1.07.95-1.56,1.48s-.8.39-1.23-.06q-9.07-9.37-18.16-18.73c-4.39-4.52-8.81-9-13.2-13.54L121,260.39l-13.83-14.25q-10.14-10.45-20.28-20.88c-.53-.55-.5-.85,0-1.36Q101,210.25,115,196.57c2-2,4.08-3.91,6.08-5.91.59-.58,1-.61,1.59,0Q137,205.39,151.27,220.1l13.23,13.65c3.43,3.54,6.88,7.09,10.27,10.67.59.62.89.6,1.49,0q11.63-11.53,23.31-23,13.92-13.72,27.86-27.43l26.94-26.51,27.18-26.75c3.6-3.54,7.21-7.06,10.79-10.62.6-.6,1-.6,1.55,0q11.89,12.1,23.83,24.18,4.78,4.85,9.55,9.73C327.48,164.25,327.79,164.41,327.82,164.71Z"/></g></g></svg>