<?xml version="1.0" encoding="utf-8"?>
<!-- Generator: Adobe Illustrator 25.2.0, SVG Export Plug-In . SVG Version: 6.00 Build 0)  -->
<svg version="1.1" id="Layer_1" xmlns="http://www.w3.org/2000/svg" xmlns:xlink="http://www.w3.org/1999/xlink" x="0px" y="0px"
	 viewBox="0 0 268.4 244.2" style="enable-background:new 0 0 268.4 244.2;" xml:space="preserve">
<style type="text/css">
	.st0{fill:#2A7AE4;}
</style>
<path class="st0" d="M61.7,174.5c0-5.5,0.3-10.4-0.1-15.2s1.3-6.8,5.2-8.3c15.1-6,29.2-14,42.2-24.7c4.8-3.9,6.7-8.8,4.6-14
	c-1.5-3.7-1.4-6.7,0-10c1.2-3,1.4-6.2-2-7.4c-3.2-1.4-4.5,1.5-5.7,4.4c-0.8,1.9-1.8,4.1-3.2,5.1c-2.7,2-5.9,3.2-8.7,5.1
	c-17.9,11.5-36.9,18-57.7,16.8c-5.3-0.3-10.8,0.3-16.1,1.6c-8.6,2.1-15.8,7.7-17.9,17.9c-1.9,9.4-1.8,19.1-2.6,29
	C21.2,174.5,41.1,174.5,61.7,174.5z"/>
<path class="st0" d="M208.2,198.8c-42.3,47.5-98.1,35.8-121.4,15c3.2-5.6,6.6-11.3,10.3-17.9c-12.8,1.7-24.2,3.3-36.2,4.9
	c3,13.9,5.8,26.8,8.9,41.2c3.8-6.3,7-11.6,10.2-16.9c55.1,38.5,112.6,12.5,135.2-17.9C212.8,204.3,210.6,201.6,208.2,198.8z"/>
<path class="st0" d="M180.1,48.4c12.8-1.7,24.3-3.2,36.3-4.7c-2.9-13.6-5.9-26.8-9-41.2c-3.8,6.4-7,11.6-10.3,17.1
	c-21.9-15.5-45.3-22-70.5-18.7c-25.4,3.3-47,15.5-64.7,36c2.8,3.3,5.1,5.9,7.4,8.6c43-47.7,98-35.5,121.5-15
	C187.4,36,184.2,41.5,180.1,48.4z"/>
<path class="st0" d="M230.1,127.1c12.8,0,23.1-11.8,23.1-26.4c0-14.7-10.3-26.5-23-26.6c-12.8,0-23,11.6-23,26.4
	C207.1,115.2,217.3,127,230.1,127.1z"/>
<path class="st0" d="M35.9,71.7c-11.6-0.1-20.8,10.5-20.8,23.9c0,13.1,9,23.6,20.5,23.7C47,119.5,56.2,109.1,56.4,96
	C56.6,82.6,47.6,71.9,35.9,71.7z"/>
<path class="st0" d="M68.8,74.9c18.5,0,36.5,0,54.5,0c0-2.5,0-4.5,0-6.8c-18.4,0-36.4,0-54.5,0C68.8,70.6,68.8,72.5,68.8,74.9z"/>
<path class="st0" d="M101.2,84.9c-10.9,0-21.5,0-32.2,0c0,2.5,0,4.6,0,6.8c11,0,21.6,0,32.2,0C101.2,89.2,101.2,87.2,101.2,84.9z"/>
<path class="st0" d="M268.3,173.5c-25.1,0-50.1,0-75,0c-2.8-14.2,1.1-26.5,11.4-33.1c16.8-10.7,34-10.5,51-0.3
	c6.9,4.2,10.3,11.6,12.8,19.7C268.3,164.5,268.3,169,268.3,173.5z"/>
<path class="st0" d="M61.7,174.5c-20.6,0-40.5,0-61.7,0c0.8-9.8,0.8-19.6,2.6-29c2.1-10.3,9.1-15.8,17.9-17.9
	c5.2-1.2,10.7-1.9,16.1-1.6c20.8,1.2,39.7-5.3,57.7-16.8c2.8-1.8,6-3,8.7-5.1c1.5-1.1,2.5-3.3,3.2-5.1c1.2-2.9,2.5-5.8,5.7-4.4
	c3.3,1.4,3.1,4.5,2,7.4c-1.4,3.4-1.5,6.4,0,10c2.1,5.2,0.2,10-4.6,14c-12.9,10.7-27.2,18.7-42.2,24.7c-3.9,1.6-5.6,3.5-5.2,8.3
	C62,164.1,61.7,169,61.7,174.5z"/>
<path class="st0" d="M208.2,198.8c2.4,2.8,4.6,5.5,7,8.3c-22.6,30.3-80,56.4-135.2,17.9c-3.1,5.3-6.4,10.6-10.2,16.9
	c-3.1-14.3-5.9-27.3-8.9-41.2c11.9-1.6,23.4-3.2,36.2-4.9c-3.8,6.7-7.1,12.3-10.3,17.9C110.1,234.5,166,246.3,208.2,198.8z"/>
<path class="st0" d="M180.1,48.4c4-6.9,7.4-12.4,10.6-17.9C167.1,9.9,112-2.3,69.1,45.4c-2.3-2.6-4.5-5.2-7.4-8.6
	c17.9-20.5,39.3-32.7,64.7-36c25.3-3.3,48.6,3.3,70.5,18.7c3.2-5.4,6.4-10.7,10.3-17.1c3.1,14.3,6,27.5,9,41.2
	C204.4,45.1,192.9,46.7,180.1,48.4z"/>
<path class="st0" d="M230.1,127.1c-12.8,0-23-11.8-23-26.6s10.2-26.4,23-26.4c12.8,0,23,12,23,26.6
	C253.1,115.3,242.8,127.1,230.1,127.1z"/>
<path class="st0" d="M35.9,71.7C47.5,71.9,56.6,82.6,56.4,96c-0.2,13.1-9.4,23.5-20.8,23.4c-11.5-0.1-20.5-10.5-20.5-23.7
	C15.1,82.2,24.3,71.6,35.9,71.7z"/>
<path class="st0" d="M68.8,74.9c0-2.4,0-4.3,0-6.8c18.1,0,36.2,0,54.5,0c0,2.3,0,4.3,0,6.8C105.3,74.9,87.4,74.9,68.8,74.9z"/>
<path class="st0" d="M101.2,84.9c0,2.3,0,4.2,0,6.8c-10.6,0-21.2,0-32.2,0c0-2,0-4.2,0-6.8C79.7,84.9,90.3,84.9,101.2,84.9z"/>
</svg>
