<?xml version="1.0" encoding="utf-8"?>
<!-- Generator: Adobe Illustrator 25.2.0, SVG Export Plug-In . SVG Version: 6.00 Build 0)  -->
<svg version="1.1" id="Layer_1" xmlns="http://www.w3.org/2000/svg" xmlns:xlink="http://www.w3.org/1999/xlink" x="0px" y="0px"
	 viewBox="0 0 359 296.1" style="enable-background:new 0 0 359 296.1;" xml:space="preserve">
<style type="text/css">
	.st0{fill:#2A7AE4;}
</style>
<path class="st0" d="M100.5,187.4c0-4.9,0.3-9.2-0.1-13.5s1.3-6,5.3-7.4c15.4-5.3,29.8-12.4,43-21.9c4.9-3.5,6.8-7.8,4.7-12.4
	c-1.5-3.3-1.4-5.9,0-8.9c1.2-2.7,1.4-5.5-2-6.6c-3.3-1.2-4.6,1.3-5.8,3.9c-0.8,1.7-1.8,3.6-3.3,4.5c-2.8,1.8-6,2.8-8.9,4.5
	c-18.3,10.2-37.6,16-58.8,14.9c-5.4-0.3-11,0.3-16.4,1.4c-8.8,1.9-16.1,6.8-18.2,15.9c-1.9,8.3-1.8,16.9-2.7,25.7
	C59.2,187.4,79.5,187.4,100.5,187.4z"/>
<path class="st0" d="M249.9,208.9c-43.1,42.1-100,31.7-123.8,13.3c3.3-5,6.7-10,10.5-15.9c-13,1.5-24.7,2.9-36.9,4.3
	c3.1,12.3,5.9,23.8,9.1,36.5c3.9-5.6,7.1-10.3,10.4-15c56.2,34.1,114.8,11.1,137.8-15.9C254.6,213.8,252.3,211.4,249.9,208.9z"/>
<path class="st0" d="M221.2,75.6c13.1-1.5,24.8-2.8,37-4.2c-3-12.1-6-23.8-9.2-36.5c-3.9,5.7-7.1,10.3-10.5,15.2
	c-22.3-13.7-46.2-19.5-71.9-16.6c-25.9,2.9-47.9,13.7-66,31.9c2.9,2.9,5.2,5.2,7.5,7.6C151.9,30.7,208,41.5,232,59.7
	C228.7,64.6,225.4,69.5,221.2,75.6z"/>
<path class="st0" d="M272.2,145.4c13,0,23.6-10.5,23.6-23.4c0-13-10.5-23.5-23.4-23.6c-13.1,0-23.5,10.3-23.5,23.4
	C248.8,134.8,259.1,145.3,272.2,145.4z"/>
<path class="st0" d="M74.2,96.3C62.4,96.2,53,105.6,53,117.5c0,11.6,9.2,20.9,20.9,21c11.6,0.1,21-9.1,21.2-20.7
	C95.3,105.9,86.1,96.4,74.2,96.3z"/>
<path class="st0" d="M107.8,99.1c18.9,0,37.2,0,55.6,0c0-2.2,0-4,0-6c-18.8,0-37.1,0-55.6,0C107.8,95.3,107.8,97,107.8,99.1z"/>
<path class="st0" d="M140.8,108c-11.1,0-21.9,0-32.8,0c0,2.2,0,4.1,0,6c11.2,0,22,0,32.8,0C140.8,111.8,140.8,110,140.8,108z"/>
<path class="st0" d="M311.1,186.5c-25.6,0-51.1,0-76.5,0c-2.9-12.6,1.1-23.5,11.6-29.3c17.1-9.5,34.7-9.3,52-0.3
	c7,3.7,10.5,10.3,13,17.5C311.1,178.5,311.1,182.5,311.1,186.5z"/>
<path class="st0" d="M100.5,187.4c-21,0-41.3,0-62.9,0c0.8-8.7,0.8-17.4,2.7-25.7c2.1-9.1,9.3-14,18.2-15.9
	c5.3-1.1,10.9-1.7,16.4-1.4c21.2,1.1,40.5-4.7,58.8-14.9c2.9-1.6,6.1-2.7,8.9-4.5c1.5-1,2.5-2.9,3.3-4.5c1.2-2.6,2.5-5.1,5.8-3.9
	c3.4,1.2,3.2,4,2,6.6c-1.4,3-1.5,5.7,0,8.9c2.1,4.6,0.2,8.9-4.7,12.4c-13.2,9.5-27.7,16.6-43,21.9c-4,1.4-5.7,3.1-5.3,7.4
	C100.8,178.2,100.5,182.5,100.5,187.4z"/>
<path class="st0" d="M249.9,208.9c2.4,2.5,4.7,4.9,7.1,7.4c-23,26.9-81.6,50-137.8,15.9c-3.2,4.7-6.5,9.4-10.4,15
	c-3.2-12.7-6-24.2-9.1-36.5c12.1-1.4,23.9-2.8,36.9-4.3c-3.9,5.9-7.2,10.9-10.5,15.9C149.9,240.6,206.8,251,249.9,208.9z"/>
<path class="st0" d="M221.2,75.6c4.1-6.1,7.5-11,10.8-15.9c-24-18.2-80.2-29-123.9,13.2c-2.3-2.3-4.6-4.6-7.5-7.6
	c18.2-18.2,40.1-29,66-31.9c25.8-2.9,49.6,2.9,71.9,16.6c3.3-4.8,6.5-9.5,10.5-15.2c3.2,12.7,6.1,24.4,9.2,36.5
	C246,72.7,234.3,74.1,221.2,75.6z"/>
<path class="st0" d="M272.2,145.4c-13,0-23.4-10.5-23.4-23.6s10.4-23.4,23.5-23.4c13,0,23.5,10.6,23.4,23.6
	C295.7,134.9,285.1,145.4,272.2,145.4z"/>
<path class="st0" d="M74.2,96.3c11.8,0.1,21.1,9.6,20.9,21.5c-0.2,11.6-9.6,20.8-21.2,20.7c-11.7-0.1-20.9-9.3-20.9-21
	C53,105.6,62.4,96.2,74.2,96.3z"/>
<path class="st0" d="M107.8,99.1c0-2.1,0-3.8,0-6c18.5,0,36.9,0,55.6,0c0,2,0,3.8,0,6C145,99.1,126.7,99.1,107.8,99.1z"/>
<path class="st0" d="M140.8,108c0,2,0,3.7,0,6c-10.8,0-21.6,0-32.8,0c0-1.8,0-3.7,0-6C118.9,108,129.7,108,140.8,108z"/>
</svg>
