<?xml version="1.0" encoding="utf-8"?>
<!-- Generator: Adobe Illustrator 25.2.0, SVG Export Plug-In . SVG Version: 6.00 Build 0)  -->
<svg version="1.1" id="Capa_1" xmlns="http://www.w3.org/2000/svg" xmlns:xlink="http://www.w3.org/1999/xlink" x="0px" y="0px"
	 viewBox="0 0 452 512" style="enable-background:new 0 0 452 512;" xml:space="preserve">
<style type="text/css">
	.st0{fill:#0C73B8;}
	.st1{fill:#30A9DC;}
	.st2{fill:#ECEDEE;}
	.st3{fill:#FFFFFF;}
</style>
<path class="st0" d="M41,460L0,0h451l-41,460l-185,52"/>
<path class="st1" d="M226,472l149-41l35-394H226"/>
<path class="st2" d="M226,208H94l5,57h127V208z M226,94H84l5,56h137V94z M226,355l-124-33l7,60l117,32V355z"/>
<path class="st3" d="M226,265h69l-7,73l-62,17v59l115-32l26-288H226v56h80l-6,58h-74V265z"/>
</svg>
