<?xml version="1.0" encoding="utf-8"?>
<!-- Generator: Adobe Illustrator 25.2.0, SVG Export Plug-In . SVG Version: 6.00 Build 0)  -->
<svg version="1.1" id="Capa_1" xmlns="http://www.w3.org/2000/svg" xmlns:xlink="http://www.w3.org/1999/xlink" x="0px" y="0px"
	 viewBox="0 0 188.6 189.1" style="enable-background:new 0 0 188.6 189.1;" xml:space="preserve">
<style type="text/css">
	.st0{fill:#FFFFFF;}
	.st1{fill:#026666;}
</style>
<g id="Capa_2_1_">
	<g id="Capa_1-2">
		<circle class="st0" cx="94.3" cy="94.7" r="75.2"/>
		<path class="st1" d="M110.2,1.5c37.8,7.1,69.9,39.5,77,77.2c2,10.6,2,21.4,0,32c-7.4,39.9-42.5,71.1-77,77.2
			c-9.5,1.5-19.1,1.7-28.6,0.5c-12-1.6-23.6-5.5-34.1-11.4c-9.9-5.8-18.7-13.3-25.9-22.2C3.5,132.5-3.2,107,1.4,78.7
			c6.1-37.1,38.7-70,76.9-77.2C88.9-0.5,99.7-0.5,110.2,1.5z M125.7,123c-0.4-1-0.6-1.4-0.7-1.8c-6.2-18.3-12.5-36.7-18.7-55
			c-2.2-6.5-2.2-6.6-9.1-6.1c-2.5,0.2-3,0.8-2.3,3.2c0.2,0.6,0.4,1.2,0.6,1.8l21.8,62c2.3,6.5,2.5,6.6,9.3,6.4
			c0.4,0,0.8-0.1,1.2-0.1c2.3,0,3.6-1.1,4.3-3.4c2.6-7.7,5.3-15.4,8-23c5-14.4,10-28.7,15.1-43.1c1.1-3.1,0.6-3.7-2.6-3.8
			c-1,0-2.1,0.1-3.1,0c-2.1-0.2-3.3,0.7-4,2.9c-1.8,5.9-3.8,11.7-5.7,17.5C135.1,94.5,130.5,108.6,125.7,123z M36.8,97.7
			c0,2.8,0.1,5.6,0.5,8.4c1.3,8.2,4,15.8,10.7,21.3c9.7,8.1,26,8.7,37.6,1.8c2.9-1.7,4.3-3.9,3.9-7.2c-0.1-1.1,0.2-2.6-1-3.2
			s-2.1,0.4-3,1c-2.5,1.8-5.3,3.2-8.2,4.3c-13.1,4.6-25-1.4-28.6-14.7c-2.4-8.4-2.2-17.4,0.4-25.8c5.3-17,20.1-18.2,30.8-13.2
			c2.1,1.1,4.2,2.3,6.1,3.8c1.1,0.8,2.2,1.1,2.9-0.5c1.3-2.9,0.3-7.2-2.3-9c-11-7.5-30.8-7.9-41.3,5.7
			C38.8,78.4,36.9,87.8,36.8,97.7z"/>
	</g>
</g>
</svg>
