<svg xmlns="http://www.w3.org/2000/svg" viewBox="0 0 188.65 189.07"><defs><style>.cls-1{fill:#026666;}</style></defs><g id="Capa_2" data-name="Capa 2"><g id="Capa_1-2" data-name="Capa 1"><path class="cls-1" d="M110.21,1.48c37.78,7.07,69.94,39.46,77,77.16a88,88,0,0,1,0,32c-7.44,39.92-42.52,71.1-77,77.17a100,100,0,0,1-28.58.48,94.47,94.47,0,0,1-34.09-11.42A93.31,93.31,0,0,1,21.6,154.63C3.48,132.5-3.22,107,1.43,78.68c6.08-37.07,38.66-70,76.89-77.2A86.77,86.77,0,0,1,110.21,1.48Zm15.45,121.57c-.37-1-.56-1.4-.72-1.84q-9.34-27.51-18.69-55c-2.23-6.55-2.21-6.56-9.09-6.1-2.48.17-3,.81-2.35,3.15.16.62.37,1.22.58,1.83l21.81,62c2.3,6.54,2.46,6.65,9.35,6.36.4,0,.8-.07,1.19-.08,2.28,0,3.59-1.14,4.33-3.35,2.59-7.7,5.33-15.36,8-23q7.54-21.56,15.07-43.11c1.08-3.11.63-3.73-2.56-3.82-1,0-2.08.06-3.11,0-2.15-.15-3.3.74-4,2.88-1.79,5.87-3.8,11.67-5.73,17.5C135.13,94.51,130.46,108.58,125.66,123.05ZM36.83,97.73a52,52,0,0,0,.54,8.36c1.28,8.25,4,15.81,10.65,21.34,9.66,8.06,26,8.72,37.55,1.8,2.87-1.72,4.29-3.92,3.89-7.25-.14-1.14.23-2.59-1-3.21s-2.12.4-3,1a36.41,36.41,0,0,1-8.23,4.29c-13.07,4.64-25-1.39-28.62-14.69a45.65,45.65,0,0,1,.38-25.77c5.28-17,20.09-18.23,30.82-13.17a46,46,0,0,1,6.1,3.75c1.11.76,2.15,1.1,2.88-.52,1.31-2.87.27-7.23-2.34-9-11-7.53-30.75-7.9-41.32,5.65C38.77,78.37,36.86,87.77,36.83,97.73Z"/></g></g></svg>