<?xml version="1.0" encoding="utf-8"?>
<!-- Generator: Adobe Illustrator 25.2.0, SVG Export Plug-In . SVG Version: 6.00 Build 0)  -->
<svg version="1.1" id="Layer_1" xmlns="http://www.w3.org/2000/svg" xmlns:xlink="http://www.w3.org/1999/xlink" x="0px" y="0px"
	 viewBox="0 0 115.5 115.5" style="enable-background:new 0 0 115.5 115.5;" xml:space="preserve">
<style type="text/css">
	.st0{fill:#F05133;}
</style>
<g>
	<path class="st0" d="M113.4,52.6L62.9,2.2c-2.9-2.9-7.6-2.9-10.5,0L41.9,12.7l13.3,13.3c3.1-1,6.6-0.3,9.1,2.1
		c2.5,2.5,3.2,6,2.1,9.1L79.2,50c3.1-1.1,6.7-0.4,9.1,2.1c3.5,3.5,3.5,9.1,0,12.5c-3.5,3.5-9.1,3.5-12.5,0c-2.6-2.6-3.2-6.4-1.9-9.6
		L62,43.1v31.4c0.8,0.4,1.6,1,2.3,1.7c3.5,3.5,3.5,9.1,0,12.5c-3.5,3.5-9.1,3.5-12.5,0c-3.5-3.5-3.5-9.1,0-12.5
		c0.9-0.9,1.8-1.5,2.9-1.9V42.5c-1.1-0.4-2-1.1-2.9-1.9c-2.6-2.6-3.2-6.5-1.9-9.7L36.8,17.8L2.2,52.4c-2.9,2.9-2.9,7.6,0,10.5
		l50.5,50.4c2.9,2.9,7.6,2.9,10.5,0l50.2-50.2C116.3,60.2,116.3,55.5,113.4,52.6z"/>
</g>
</svg>
