<?xml version="1.0" encoding="utf-8"?>
<!-- Generator: Adobe Illustrator 25.2.0, SVG Export Plug-In . SVG Version: 6.00 Build 0)  -->
<svg version="1.1" id="Capa_1" xmlns="http://www.w3.org/2000/svg" xmlns:xlink="http://www.w3.org/1999/xlink" x="0px" y="0px"
	 viewBox="0 0 39.9 39.5" style="enable-background:new 0 0 39.9 39.5;" xml:space="preserve">
<style type="text/css">
	.st0{fill:#FFFFFF;}
</style>
<g id="Capa_2_1_">
	<g id="Capa_1-2">
		<path class="st0" d="M39,19.8C38.8,10.4,31,0.6,20,0.6S1.2,10.6,0.9,19.8c-0.2,7.7,4.7,15.6,11.8,18.2c2.3,0.7,4.8,1,7.3,1
			c2.2,0,4.4-0.2,6.5-0.7C32.5,36.7,39.2,28.8,39,19.8z"/>
		<path d="M17.7,0.1C6.8,1.3-1.1,11.2,0.1,22.1c0.8,7.4,5.7,13.7,12.6,16.4c0.5,0.2,1-0.1,1.2-0.6c0-0.1,0.1-0.3,0-0.4v-3.2
			c-0.6,0.1-1.2,0.2-1.8,0.2c-2.2,0-3.9-1.7-4.2-3.8c-0.2-0.8-0.6-1.5-1.2-2c-0.6-0.2-0.8-0.2-0.8-0.4c0-0.4,0.6-0.4,0.8-0.4
			c1.2,0,2.2,1.4,2.6,2c0.5,1.1,1.6,1.8,2.8,2c0.6,0,1.2-0.1,1.8-0.4c0.1-1.4,0.9-2.7,2-3.6c-4.6-1-8-3.6-8-8c0.1-2.2,0.9-4.3,2.4-6
			C10,13,9.9,12.1,9.9,11.1c-0.1-1.1,0.1-2.2,0.6-3.2c2.1,0.2,4.1,1.1,5.6,2.6c1.2-0.4,2.5-0.6,3.8-0.6c1.4,0,2.7,0.2,4,0.6
			c1.5-1.5,3.5-2.5,5.6-2.6c0.3,1,0.4,2.1,0.4,3.2c0.1,1-0.1,1.9-0.4,2.8c1.5,1.6,2.4,3.8,2.4,6c0,4.4-3.4,7-8,8
			c1.3,1.2,2,2.9,2,4.6v5.2c0,0.6,0.5,1.1,1.1,1c0.1,0,0.2,0,0.3,0c10.3-4.1,15.3-15.8,11.1-26.1C35.1,4.3,26.6-0.8,17.7,0.1z"/>
	</g>
</g>
</svg>
