<svg xmlns="http://www.w3.org/2000/svg" viewBox="0 0 39.92 39.5"><defs><style>.cls-1{fill:#fff;}</style></defs><g id="Capa_2" data-name="Capa 2"><g id="Capa_1-2" data-name="Capa 1"><path class="cls-1" d="M39.29,20C39.07,10.44,31.26.42,20.23.42S1.44,10.58,1.17,20C1,27.81,5.87,35.82,13,38.55a23.34,23.34,0,0,0,7.25,1,26.85,26.85,0,0,0,6.52-.75C32.75,37.12,39.5,29.08,39.29,20Z"/><path d="M17.72.14a19.93,19.93,0,0,0-5,38.4.92.92,0,0,0,1.2-1v-3.2a8.25,8.25,0,0,1-1.8.2,4.31,4.31,0,0,1-4.2-3.8,4.15,4.15,0,0,0-1.2-2c-.6-.2-.8-.2-.8-.4,0-.4.6-.4.8-.4,1.2,0,2.2,1.4,2.6,2a3.64,3.64,0,0,0,2.8,2,4,4,0,0,0,1.8-.4,5.07,5.07,0,0,1,2-3.6c-4.6-1-8-3.6-8-8a9.43,9.43,0,0,1,2.4-6,7.42,7.42,0,0,1-.4-2.8,6.85,6.85,0,0,1,.6-3.2,9,9,0,0,1,5.6,2.6,10.82,10.82,0,0,1,3.8-.6,12.9,12.9,0,0,1,4,.6,8.62,8.62,0,0,1,5.6-2.6,9.94,9.94,0,0,1,.4,3.2,6.65,6.65,0,0,1-.4,2.8,9,9,0,0,1,2.4,6c0,4.4-3.4,7-8,8a6.17,6.17,0,0,1,2,4.6v5.2a1.09,1.09,0,0,0,1.4,1A20.08,20.08,0,0,0,17.72.14Z"/></g></g></svg>