<?xml version="1.0" encoding="utf-8"?>
<!-- Generator: Adobe Illustrator 25.2.0, SVG Export Plug-In . SVG Version: 6.00 Build 0)  -->
<svg version="1.1" id="Capa_1" xmlns="http://www.w3.org/2000/svg" xmlns:xlink="http://www.w3.org/1999/xlink" x="0px" y="0px"
	 viewBox="0 0 452 512" style="enable-background:new 0 0 452 512;" xml:space="preserve">
<style type="text/css">
	.st0{fill:#E34F26;}
	.st1{fill:#EF652A;}
	.st2{fill:#ECEDEE;}
	.st3{fill:#FFFFFF;}
</style>
<path class="st0" d="M41,460L0,0h451l-41,460l-185,52"/>
<path class="st1" d="M226,472l149-41l35-394H226"/>
<path class="st2" d="M226,208h-75l-5-58h80V94H84l15,171h127V208z M226,355l-64-17l-4-45h-56l7,89l117,32V355z"/>
<path class="st3" d="M226,265h69l-7,73l-62,17v59l115-32l16-174H226V265z M226,94v56h136l5-56H226z"/>
</svg>
