<?xml version="1.0" encoding="utf-8"?>
<!-- Generator: Adobe Illustrator 25.2.0, SVG Export Plug-In . SVG Version: 6.00 Build 0)  -->
<svg version="1.1" id="Capa_1" xmlns="http://www.w3.org/2000/svg" xmlns:xlink="http://www.w3.org/1999/xlink" x="0px" y="0px"
	 viewBox="0 0 188.7 190.4" style="enable-background:new 0 0 188.7 190.4;" xml:space="preserve">
<style type="text/css">
	.st0{fill:#0288D1;}
	.st1{fill:#FFFFFF;}
</style>
<path class="st0" d="M94.3,0C42.3,0,0,42.2,0,94.5s42.3,94.5,94.3,94.5s94.3-42.4,94.3-94.5S146.4,0,94.3,0z"/>
<path class="st1" d="M47.1,70.8H66v70.9H47.1V70.8z M56.5,61.3L56.5,61.3c-5.8,0-9.5-4.2-9.5-9.5s3.8-9.5,9.5-9.5
	c5.8,0,9.3,4.2,9.5,9.5C66,57.2,62.3,61.3,56.5,61.3z M146.2,96.9c0-14.3-11.6-25.9-25.9-25.9c-8.8,0-16.6,4.3-21.2,11.1V70.9H80.2
	v70.9h18.9v-38.1c0-7.8,6.3-14.1,14.1-14.1s14.1,6.3,14.1,14.1v37.9h18.9C146.2,141.7,146.2,98.9,146.2,96.9z"/>
</svg>
