<svg xmlns="http://www.w3.org/2000/svg" viewBox="0 0 111.14 97.82"><defs><style>.cls-1{fill:none;}.cls-2{fill:#2ea9e1;}.cls-3{fill:#2177bb;}.cls-4{fill:#2c3e8e;}.cls-5{fill:#282a5f;}.cls-6{isolation:isolate;}.cls-7{fill:#fff;}</style></defs><g id="Capa_1" data-name="Capa 1"><g id="Capa_6" data-name="Capa 6"><path class="cls-1" d="M143.05,104.33a1.92,1.92,0,0,0-1.72,2.54,1.85,1.85,0,0,0,2.31,1.23l.08,0a2,2,0,0,0,1.33-1.55,1.94,1.94,0,0,0-1.65-2.18A2.08,2.08,0,0,0,143.05,104.33Z" transform="translate(-104.34 -75.67)"/><path class="cls-1" d="M175.11,86.39A42.11,42.11,0,0,0,127,115.76c0,.12-.07.24-.1.35h26.94v-.35c.11-2.56.59-7.42,1-10.3.86-5.83,2.22-10.62,3.56-12.45s2.55-1.8,3.73-.13C164.36,96,166,104.3,166.62,115c0,.27,0,.55,0,.8s0,.24,0,.35h28.94l-.15-.35A42.15,42.15,0,0,0,154.21,90a42.15,42.15,0,0,1,46.85,25.73,3.62,3.62,0,0,1,.13.35h6.65a3.57,3.57,0,0,0-.1-.35A42.09,42.09,0,0,0,175.11,86.39Zm-22.76,23.74c-.12,1-.24,1.44-.31,2.49,0,.4,0,.8-.09,1.19s-.07.79-.07,1-.06.33-.12.3a8.23,8.23,0,0,0-1.11,0l-1.37.09c-.71,0-3.66.3-4.18.36a1,1,0,0,1-.69-.09c-.27-.27-2.43-3.28-3.2-4.44-2.47-3.77-3.8-6.72-3.84-8.53,0-.91.1-1.27.57-1.64a1.84,1.84,0,0,1,.57-.38,1.61,1.61,0,0,1,.37-.07,5.18,5.18,0,0,1,.88,0c3,.43,8.39,4.09,8.39,4.09,1.43,1,4.36,3.12,4.33,3.19A21.8,21.8,0,0,1,152.35,110.13Zm17.18-3.32c6.47-4.78,11.45-7,13.15-6a1.79,1.79,0,0,1,.81,1.86c-.18,2.54-2.58,6.92-6.87,12.55l-.39.51-1.31-.14c-1.65-.19-4.75-.43-5.41-.43a2.24,2.24,0,0,1-.58-.06c-.07,0-.09-.27-.19-2,0-.44-.12-1.6-.2-2.57s-.19-2-.21-2.31l-.05-.54Z" transform="translate(-104.34 -75.67)"/><path class="cls-1" d="M176.84,108.17a2.65,2.65,0,0,0,.63.16,2.17,2.17,0,0,0,.51,0,1.54,1.54,0,0,0,.81-.34,1.89,1.89,0,0,0,.66-1,2,2,0,0,0-.95-2.38,2,2,0,0,0-2.25.42,2.18,2.18,0,0,0-.5,1.14,1.51,1.51,0,0,0,0,.52A1.88,1.88,0,0,0,176.84,108.17Z" transform="translate(-104.34 -75.67)"/><path class="cls-1" d="M162,154.11c-.93,1.39-1.91,1.74-2.91,1-2-1.52-3.79-7.58-4.72-16.19-.26-2.29-.59-6.77-.61-7.95H123.33a42.13,42.13,0,0,0,42.2,28.14A42.14,42.14,0,0,1,117.8,131h-6.46a42.12,42.12,0,0,0,82,0H166.63v.28C166,142.45,164.3,150.66,162,154.11Zm-11.47-13.39a37.6,37.6,0,0,1-9.36,5.39c-.59.19-1.19.36-1.31.38a5.31,5.31,0,0,1-1.64-.08,1.85,1.85,0,0,1-.6-.36c-1.48-1.49.52-6.23,5.4-12.83,1.4-1.89,1.35-1.86,1.81-1.8s3.49.36,3.59.36l.54,0c.44.05,2.28.17,2.65.17.17,0,.19,0,.19.2s0,.6.06,1.11.08,1.27.1,1.7a42,42,0,0,0,.44,4.23C152.49,139.29,152.37,139.41,150.55,140.72Zm17.86-4.17c.15-1.57.29-3.22.3-3.66l0-.81.32-.05h.29l1.87-.08c1.08,0,2.11-.14,3.68-.31l1.19-.12c.11,0,2.25,3,3.16,4.37.51.77,3.89,7.45,4,8.44a4.31,4.31,0,0,1,0,.88,1.49,1.49,0,0,1-.05.36,2.77,2.77,0,0,1-.41.6c-.37.44-.65.54-1.55.54a10.68,10.68,0,0,1-3.52-1,55.08,55.08,0,0,1-8.67-5.52c-1-.77-1-.46-.66-3.64Z" transform="translate(-104.34 -75.67)"/><path class="cls-1" d="M158.92,135.65c0,9.41,0,10.84-.18,11a2,2,0,0,0-.45,1.59,1.73,1.73,0,0,0,.51,1,1.79,1.79,0,0,0,2.36.41,1.37,1.37,0,0,0,.76-.77,1.82,1.82,0,0,0,.24-1,1.77,1.77,0,0,0-.66-1.38l-.14-.41V135.47l-.12-4.5h-2.32Z" transform="translate(-104.34 -75.67)"/><path class="cls-1" d="M175.7,141.64a1.93,1.93,0,0,0,1.08.92,2,2,0,0,0,1.64,0,2,2,0,0,0,1-1.24,2,2,0,0,0-1.61-2.33h0a2.08,2.08,0,0,0-2.23,1.86,1,1,0,0,0,0,.17A2,2,0,0,0,175.7,141.64Z" transform="translate(-104.34 -75.67)"/><path class="cls-1" d="M144,139.09a1.94,1.94,0,0,0-2.69,2.59,1.48,1.48,0,0,0,.76.76,2,2,0,0,0,2.26-.32A1.94,1.94,0,0,0,144,139.09Z" transform="translate(-104.34 -75.67)"/><path class="cls-1" d="M161.36,101l.28-.27a1.94,1.94,0,0,0-2.42-3,2,2,0,0,0-.67,1,1.82,1.82,0,0,0,.31,1.67c.28.36.28.61.33,11.37v4.4h2.17V101Z" transform="translate(-104.34 -75.67)"/><path class="cls-2" d="M152,135c0-.43-.07-1.19-.1-1.7s0-1-.06-1.11,0-.19-.19-.2c-.38,0-2.21-.12-2.65-.17a4.91,4.91,0,0,0-.55,0l-3.59-.36c-.44-.06-.41-.1-1.81,1.8-4.87,6.61-6.87,11.34-5.39,12.83a1.66,1.66,0,0,0,.6.36,5.25,5.25,0,0,0,1.63.08c.13,0,.72-.19,1.32-.38a37.57,37.57,0,0,0,9.35-5.39c1.82-1.31,1.94-1.42,1.86-1.5S152.06,136.46,152,135Zm-7.65,7.13a2,2,0,0,1-2.26.32,1.48,1.48,0,0,1-.76-.76,1.93,1.93,0,1,1,3,.44Z" transform="translate(-104.34 -75.67)"/><path class="cls-3" d="M161.36,135.47v10.64l.14.41a1.77,1.77,0,0,1,.66,1.38,1.82,1.82,0,0,1-.24,1,1.37,1.37,0,0,1-.76.77,1.79,1.79,0,0,1-2.36-.41,1.73,1.73,0,0,1-.51-1,2,2,0,0,1,.45-1.59c.18-.18.21-1.61.18-11V131h-5.14c0,1.18.35,5.66.6,7.95,1,8.62,2.71,14.67,4.73,16.19,1,.74,2,.39,2.91-1,2.27-3.44,3.93-11.66,4.6-22.86V131h-5.39Z" transform="translate(-104.34 -75.67)"/><path class="cls-3" d="M159.19,111.71c-.05-10.74-.05-11-.33-11.37a1.82,1.82,0,0,1-.31-1.67,1.94,1.94,0,1,1,3.09,2l-.28.27v14.8h5.32c0-.25,0-.51-.05-.79-.58-10.67-2.26-19-4.46-22.09-1.18-1.67-2.45-1.62-3.73.14s-2.7,6.61-3.56,12.45c-.42,2.87-.89,7.74-1,10.29h5.32Z" transform="translate(-104.34 -75.67)"/><path class="cls-2" d="M169.08,140.2a56.31,56.31,0,0,0,8.67,5.52,10.68,10.68,0,0,0,3.52,1c.9,0,1.18-.11,1.54-.54a2.21,2.21,0,0,0,.41-.6,1.15,1.15,0,0,0,.06-.37,4.22,4.22,0,0,0,0-.87c-.12-1-3.5-7.67-4-8.44-.91-1.36-3.08-4.38-3.16-4.38l-1.19.13c-1.58.17-2.6.28-3.68.31-.24,0-.92,0-1.87.07l-.29,0-.32,0,0,.81c0,.45-.15,2.09-.3,3.67C168.11,139.73,168.05,139.42,169.08,140.2Zm8.68-1.22a2,2,0,0,1,1.62,2.31v0a2,2,0,0,1-1,1.24,2,2,0,0,1-1.64,0,1.92,1.92,0,0,1-1.09-.93,1.83,1.83,0,0,1-.16-.62,1,1,0,0,1,0-.17,2.07,2.07,0,0,1,2.24-1.85Z" transform="translate(-104.34 -75.67)"/><path class="cls-2" d="M148.15,104.52s-5.41-3.66-8.39-4.09a5.06,5.06,0,0,0-.87,0,1.59,1.59,0,0,0-.38.07,2,2,0,0,0-.57.38c-.47.37-.59.73-.57,1.64,0,1.81,1.37,4.76,3.85,8.53.76,1.16,2.93,4.17,3.2,4.44a1,1,0,0,0,.68.09c.53-.06,3.48-.32,4.18-.36l1.37-.09a8.35,8.35,0,0,1,1.12,0s.1-.11.11-.3.05-.63.08-1,0-.79.08-1.19c.07-1.05.2-1.53.31-2.49a19.65,19.65,0,0,0,.15-2.42C152.52,107.64,149.59,105.49,148.15,104.52Zm-3.11,2a2,2,0,0,1-1.33,1.55,1.85,1.85,0,0,1-2.36-1.12l0-.08a1.93,1.93,0,1,1,3.75-.71,2.17,2.17,0,0,1,0,.36Z" transform="translate(-104.34 -75.67)"/><path class="cls-2" d="M168.52,110.59c.08,1,.18,2.13.2,2.57.1,1.71.12,1.92.19,2a2.24,2.24,0,0,0,.58.06c.66,0,3.75.24,5.41.43l1.31.14.39-.51c4.29-5.63,6.69-10,6.87-12.55a1.74,1.74,0,0,0-.81-1.86c-1.7-1.08-6.68,1.19-13.15,6l-1.26.94.05.54C168.33,108.59,168.43,109.62,168.52,110.59Zm7.22-4.38a2.18,2.18,0,0,1,.5-1.14,2,2,0,0,1,2.25-.42,2,2,0,0,1,1,1.26,2.13,2.13,0,0,1,0,1.12,1.89,1.89,0,0,1-.66,1,1.68,1.68,0,0,1-.81.35,3,3,0,0,1-.52,0,2.51,2.51,0,0,1-.61-.17,1.93,1.93,0,0,1-1.11-1.45A1.74,1.74,0,0,1,175.74,106.21Z" transform="translate(-104.34 -75.67)"/><path class="cls-4" d="M175.11,86.39a42.08,42.08,0,0,1,32.63,29.37h.57a42.11,42.11,0,0,0-83-1c-.07.34-.13.67-.18,1H127A42.11,42.11,0,0,1,175.11,86.39Z" transform="translate(-104.34 -75.67)"/><path class="cls-2" d="M144.63,162.76A42.11,42.11,0,0,1,111.34,131h-.24a42.12,42.12,0,0,0,83.3,3.43c.21-1.15.37-2.29.49-3.43h-1.54A42.11,42.11,0,0,1,144.63,162.76Z" transform="translate(-104.34 -75.67)"/><path class="cls-5" d="M198.06,139.81a42.11,42.11,0,0,1-33.64,33.67A42.14,42.14,0,0,0,204.08,131h-5.32A42.26,42.26,0,0,1,198.06,139.81Z" transform="translate(-104.34 -75.67)"/><path class="cls-5" d="M169.7,90a42,42,0,0,0-15.49,0,42.15,42.15,0,0,1,41.27,25.73h5.58A42.09,42.09,0,0,0,169.7,90Z" transform="translate(-104.34 -75.67)"/><path class="cls-3" d="M121.68,109.34a42.11,42.11,0,0,1,33.64-33.67,42.15,42.15,0,0,0-39.62,40.09H121A41.89,41.89,0,0,1,121.68,109.34Z" transform="translate(-104.34 -75.67)"/><path class="cls-3" d="M150,159.11a42,42,0,0,0,15.49,0A42.14,42.14,0,0,1,123.33,131H117.8A42.08,42.08,0,0,0,150,159.11Z" transform="translate(-104.34 -75.67)"/></g></g><g id="Capa_2" data-name="Capa 2"><g class="cls-6"><g class="cls-6"><path class="cls-7" d="M115.49,127.31c0,.11-.13.23-.32.23h-1.61c-.19,0-.32-.12-.32-.23V123c-.73,1.36-1.47,2.71-2.21,4.07,0,0-.19.15-.26.15h-1.53A.39.39,0,0,1,109,127h0l-2.38-4.23v4.5c0,.11-.14.23-.31.23h-1.64c-.2,0-.29-.12-.29-.23v-8.94c0-.12.09-.24.29-.24h1.67a.41.41,0,0,1,.28.15l3.42,6.39,3.24-6.39a.43.43,0,0,1,.29-.15h1.64a.29.29,0,0,1,.32.24Z" transform="translate(-104.34 -75.67)"/><path class="cls-7" d="M122.3,126.47h-2.89l-.37.92h0a.31.31,0,0,1-.29.16H117c-.24,0-.35-.16-.27-.32,1.24-2.94,2.58-6.15,3.83-9.09a.35.35,0,0,1,.57,0l3.83,9.09c.07.16,0,.32-.27.32H123a.3.3,0,0,1-.27-.16h0ZM120,124.86h1.73l-.5-1.4a9.07,9.07,0,0,1-.35-1.29,7.93,7.93,0,0,1-.37,1.29Z" transform="translate(-104.34 -75.67)"/><path class="cls-7" d="M126.06,124.51v-6a.28.28,0,0,1,.3-.24H128a.28.28,0,0,1,.3.24v5.92a1.62,1.62,0,0,0,1.68,1.26c.84,0,1.67-.4,1.67-1.23v-6a.29.29,0,0,1,.31-.24h1.61a.28.28,0,0,1,.29.24v6c0,2-1.68,3.17-3.88,3.17S126.06,126.45,126.06,124.51Z" transform="translate(-104.34 -75.67)"/><path class="cls-7" d="M139,123.82h-.75v3.49c0,.11-.13.23-.32.23h-1.59a.27.27,0,0,1-.3-.23v-8.83c0-.12.12-.23.3-.23h3.17c.6,0,3.51,0,3.51,2.81a2.48,2.48,0,0,1-1.79,2.49l.95,1.88.89,1.79c.08.16,0,.32-.26.32H141a.39.39,0,0,1-.28-.15Zm-.75-1.78h1.26c.36,0,1.3-.07,1.3-.94s-1-1-1.3-1h-1.26Z" transform="translate(-104.34 -75.67)"/><path class="cls-7" d="M154.51,122.88a5,5,0,1,1-5-4.77A4.72,4.72,0,0,1,154.51,122.88Zm-2.23,0a2.8,2.8,0,1,0-5.59,0,2.8,2.8,0,1,0,5.59,0Z" transform="translate(-104.34 -75.67)"/><path class="cls-7" d="M168.54,121c0,2.85-3.54,2.85-3.54,2.85h-1.31v3.49a.29.29,0,0,1-.31.23h-1.62c-.19,0-.31-.12-.31-.23V122.1a.28.28,0,0,1,.31-.24h1c-.27-.36-.5-.72-.76-1.09s-.41-.59-.59-.87v-1.52a.28.28,0,0,1,.31-.24H165S168.54,118.14,168.54,121ZM164,120.1l1.2,1.75c.44-.06,1.09-.3,1.09-.88,0-.87-1-.87-1.31-.87Z" transform="translate(-104.34 -75.67)"/><path class="cls-7" d="M172.19,120.14V122h3.67c.19,0,.3.11.3.23v1.41c0,.11-.11.23-.3.23h-3.67v1.81h4.46c.19,0,.32.11.32.23v1.42c0,.11-.13.23-.32.23h-6.36a.27.27,0,0,1-.29-.23v-8.83a.26.26,0,0,1,.29-.23h6.36c.19,0,.32.11.32.23v1.43c0,.11-.13.23-.32.23Z" transform="translate(-104.34 -75.67)"/><path class="cls-7" d="M181.53,123.82h-.74v3.49c0,.11-.13.23-.32.23h-1.6a.27.27,0,0,1-.29-.23v-8.83a.26.26,0,0,1,.29-.23H182c.6,0,3.51,0,3.51,2.81a2.48,2.48,0,0,1-1.78,2.49c.31.61.64,1.29.95,1.88l.89,1.79c.07.16,0,.32-.26.32h-1.76a.39.39,0,0,1-.27-.15Zm-.74-1.78H182c.37,0,1.31-.07,1.31-.94s-1-1-1.31-1h-1.25Z" transform="translate(-104.34 -75.67)"/><path class="cls-7" d="M191.94,126.47H189l-.36.92h0a.31.31,0,0,1-.29.16h-1.73c-.25,0-.35-.16-.28-.32,1.25-2.94,2.59-6.15,3.83-9.09a.35.35,0,0,1,.57,0l3.83,9.09c.08.16,0,.32-.26.32h-1.74a.3.3,0,0,1-.28-.16h0Zm-2.31-1.61h1.72l-.49-1.4a7.91,7.91,0,0,1-.35-1.29,9.09,9.09,0,0,1-.37,1.29Z" transform="translate(-104.34 -75.67)"/><g class="cls-6"><path class="cls-7" d="M201.09,125.62c.17,0,.31.11.31.23v1.46c0,.11-.14.23-.31.23H196c-.19,0-.3-.12-.3-.23v-8.83c0-.12.11-.23.3-.23h1.6a.27.27,0,0,1,.3.23v7.14Z" transform="translate(-104.34 -75.67)"/></g><g class="cls-6"><path class="cls-7" d="M207.59,119.9c0,.12-.12.22-.31.22h-1.69v7.19a.26.26,0,0,1-.29.23h-1.6c-.2,0-.29-.12-.29-.23v-7.19H201.7c-.18,0-.31-.1-.31-.22v-1.34a.29.29,0,0,1,.31-.24h5.58a.28.28,0,0,1,.31.24Z" transform="translate(-104.34 -75.67)"/></g><g class="cls-6"><path class="cls-7" d="M212.78,126.47h-2.9l-.36.92h0a.31.31,0,0,1-.29.16H207.5c-.25,0-.35-.16-.28-.32,1.25-2.94,2.59-6.15,3.83-9.09a.35.35,0,0,1,.57,0l3.83,9.09c.08.16,0,.32-.26.32h-1.74a.3.3,0,0,1-.28-.16h0Zm-2.31-1.61h1.72l-.49-1.4a7.91,7.91,0,0,1-.35-1.29,9.09,9.09,0,0,1-.37,1.29Z" transform="translate(-104.34 -75.67)"/></g></g></g></g></svg>