<svg xmlns="http://www.w3.org/2000/svg" viewBox="0 0 470.76 470.54"><defs><style>.cls-1{fill:#2a7ae4;}</style></defs><g id="Capa_2" data-name="Capa 2"><g id="Capa_1-2" data-name="Capa 1"><path class="cls-1" d="M128.06,85.69c0-4.82,0-9.1,0-13.37.12-11.66-.57-23.4.58-35a40.82,40.82,0,0,1,40.4-37c29.66-.43,59.34-.48,89,0,23.09.39,40.64,19,40.8,42.06.1,14.16,0,28.31,0,43.28h6c25.83,0,51.69.65,77.5-.17,26.83-.86,45.12,21.72,44.67,44.71-.54,27.16-.2,54.33,0,81.49a12.35,12.35,0,0,0,2.94,7.37c38.37,43.44,50.57,93.32,32.71,148.12A149.68,149.68,0,0,1,341.75,468.78C284.21,477,236.8,456,200.72,409.62c-2.16-2.78-4.25-4-7.82-3.95q-73.76.18-147.51.08C18,405.74.05,387.78,0,360.3Q0,245.55,0,130.82c0-22.51,13.24-40,33.59-44.31a56.55,56.55,0,0,1,11.43-.78c25.67-.07,51.34,0,77,0Zm255.73,43h-341v234H176.1c-14.24-61.07-1-114.31,47-155.37s102.59-46.11,160.71-22.56ZM213.62,320.13a106.65,106.65,0,1,0,213.3-.24C426.87,261.1,379,213.23,320.35,213.4,260.91,213.57,213.6,260.88,213.62,320.13ZM170.79,42.69v42h85v-42Z"/><path class="cls-1" d="M299.36,255.69h31.29c.08,1.88.23,3.63.23,5.38,0,16.48.17,33-.1,49.46-.07,4.09,1.36,6.12,4.8,8,13.8,7.71,27.41,15.75,41.09,23.67,2,1.15,4,2.34,6.25,3.68-5.36,9.29-10.58,18.31-16,27.66l-38.33-22.09c-8.94-5.15-17.93-10.2-26.76-15.54a6.4,6.4,0,0,1-2.86-4.47c-.16-24.65-.1-49.3-.08-73.94A10.38,10.38,0,0,1,299.36,255.69Z"/></g></g></svg>