<svg xmlns="http://www.w3.org/2000/svg" viewBox="0 0 506.13 257.46"><defs><style>.cls-1{fill:#eee;}</style></defs><g id="Capa_2" data-name="Capa 2"><g id="Capa_1-2" data-name="Capa 1"><path class="cls-1" d="M52.85,112.87c29.73.37,56.87.91,84,3.13,3.48.28,7,0,10.45.65,2.44.49,3.46,1.76,3.45,4.17,0,7.1.19,14.2,0,21.29-.22,6.63-4.11,10.72-10.16,12.94a88.27,88.27,0,0,1-27.1,5.29c-25.8,1-51.59.3-77.37-1.1-10.46-.57-20.92-1-31.39-1.49-4.61-.21-5.08-.67-4.36-5.26C2,141.37,3.88,130.26,5.62,119.14c.31-2,1.37-2.82,3.31-3.13a193.19,193.19,0,0,1,21.83-2.38C39,113.28,47.18,112.58,52.85,112.87Z"/><path class="cls-1" d="M110.12,104.94c-13.65.61-26.95-1.61-40.33-2.31q-11.64-.6-23.29-1c-3.92-.15-4.41-.51-4.18-4.25.49-7.73,1.07-15.46,1.56-23.19.31-4.73,2.51-8.16,6.36-11,6.32-4.57,13.4-6.19,21-6.48q37.16-1.41,74.3-2.87c3.38-.13,6.75-.36,10.12-.55a3,3,0,0,1,3.45,2.51c4,15.3,3.93,30.1-5.33,43.79a5.37,5.37,0,0,1-4.1,2.56C136.45,103.71,123.28,105.58,110.12,104.94Z"/><path class="cls-1" d="M380.44,77.38c.22-4.4.55-8.07.57-11.75.05-17.58.08-35.16,0-52.74,0-2.71.52-3.9,3.48-3.7a81.69,81.69,0,0,0,10.14,0c2.85-.16,3.81,1.09,3.77,3.77-.08,5.07,0,10.14,0,15.21q0,37.19,0,74.38c0,5.09-.17,4.61-5,5.27-8.43,1.16-13.33-2.09-17.84-9.33-12-19.2-24.94-37.8-37.52-56.64-.55-.83-1.17-1.62-1.78-2.47-1.08.74-.57,1.73-.57,2.5.06,12.72.25,25.44.26,38.16,0,8.22-.28,16.45-.33,24.67,0,2.13-.75,3.09-3,3-3.83-.1-7.66-.09-11.5-.07-2,0-2.88-.89-2.87-2.87,0-3.38,0-6.76,0-10.14q0-40.4,0-80.8c0-4.49,0-4.5,4.5-4.58,11.93-.21,11.92-.2,18.46,9.65q19,28.56,38,57.12C379.33,76.29,379.6,76.5,380.44,77.38Z"/><path class="cls-1" d="M302.34,58.27c-.11,8.5-1,16.87-4.13,24.85-5.72,14.56-16.28,23.26-31.79,25.51-13.82,2-27,.61-38.36-8.59-8.87-7.17-12.86-16.82-14.73-27.67a84.33,84.33,0,0,1,.81-32.21c3.92-18.27,17.08-30.09,35.71-32.34,9.11-1.1,18-.63,26.56,2.9,13.3,5.47,20.6,15.93,23.94,29.45A70.14,70.14,0,0,1,302.34,58.27Zm-18,1.15c0-7.48-.75-13.75-2.8-19.74-3-8.67-8.55-14.83-18-16.41a38.79,38.79,0,0,0-13.46.22c-7.31,1.36-12.62,5.43-15.53,12.2-6.14,14.32-6.11,28.89-.9,43.45,4,11.28,13.73,15.28,24.4,15,11.69-.3,19-5.13,23.08-16A55.33,55.33,0,0,0,284.32,59.42Z"/><path class="cls-1" d="M417.71,58c0-15,.08-30-.06-45,0-3.16,1-4,4.07-4q27.55.16,55.12,0c3.11,0,4.37.95,3.84,4.6a19.54,19.54,0,0,0-.09,5.4c.49,3.59-.51,4.77-3.52,4.75-12.29-.09-24.57,0-36.86,0-5.29,0-4.52.3-4.65,7.6-.07,4-.05,8,0,12,.08,6.4-.52,6.41,4.79,6.4q15.9,0,31.79,0c4.43,0,4.63.21,4.67,4.52,0,2.25-.12,4.51,0,6.76.14,2.89-1,3.94-4,3.9-11.05-.12-22.1.08-33.14-.11-3.54-.06-4.34,1.22-4.1,4.88a127.69,127.69,0,0,1,0,17.82c-.28,3.56.49,4.75,3.78,4.71,12.85-.13,25.7.06,38.55-.09,3.28,0,4.48,1,4.24,4.26-.2,2.58-.06,5.18,0,7.77,0,2.15-.72,3.3-3.16,3.3q-29.07-.07-58.16,0c-2.73,0-3.1-1.39-3.09-3.61.05-15.33,0-30.65,0-46Z"/><path class="cls-1" d="M118.91.22c10.25,0,20.49.05,30.74,0,3.72,0,5.62,1.93,6.36,5.25a74.29,74.29,0,0,1,1.43,21.76c-.32,4.46-.69,8.92-1,13.39-.12,1.91-1,2.73-3,2.82-19.34.87-38.67,1.91-58,2.68-10.24.41-15-4.54-13.95-14.92.93-9.39,2.65-18.69,3.81-28.06C85.7.27,87.3,0,89.52,0c9.8,0,19.6,0,29.39,0Z"/><path class="cls-1" d="M399.59,162.75q0,12.8,0,25.59c0,2-.05,3.89-2.81,4.11-1.76.15-2.87-.16-2.94-2.18-.05-1.69-.33-3.37-.34-5.05-.05-9.69-.1-19.38-.05-29.07,0-1.79-.77-4.3,1.69-4.94s4.4.3,5.94,2.69c5.42,8.44,11.08,16.71,16.65,25,.44.65.9,1.28,1.92,2.72.14-2.63.32-4.45.32-6.26,0-6.87,0-13.74,0-20.61,0-1.95.31-3.5,2.81-3.75s3.26.82,3.24,3.06c0,6,0,11.94-.08,17.91-.09,5.74.39,11.48-.36,17.21-.15,1.13.56,2.62-1.29,3-1.69.35-3.32.59-4.5-1.21-2.41-3.68-4.88-7.31-7.34-10.95q-5.91-8.81-11.85-17.62Z"/><path class="cls-1" d="M236.51,150.57c10,0,16.09,5,17.71,14.9,1.31,8,1.21,15.79-4.61,22.29-7.94,8.87-25.13,5.84-29.35-5.25-2.5-6.58-3-13.39-.63-20.15C222.53,154.17,227.85,150.55,236.51,150.57Zm-12.2,23c.05.86.12,2.1.17,3.33.24,6.32,2.26,8.84,8.41,10.49,7.14,1.92,13.68-1.68,15.24-8.73a32.18,32.18,0,0,0-.27-15.05c-1.35-5.2-4.7-7.73-10-8-6.42-.32-10,1.81-12.12,7C224.32,166.05,224.31,169.62,224.31,173.6Z"/><path class="cls-1" d="M220,236.06c0-5.74.08-11.49,0-17.24-.05-2.47.83-3.42,3.33-3.38,6.42.11,12.85.06,19.27,0,1.77,0,3,.23,3.09,2.5.1,3.33-2.78,2.2-4.9,2.63a29.18,29.18,0,0,1-10.21.12c-3.57-.54-4.88.11-4.78,2.81.41,11.5-1.65,9.53,9.23,9.7,1.91,0,3.83,0,5.75,0,1.65,0,3.23.23,3.31,2.45s-1.51,2.37-3.17,2.43c-3.94.14-7.88.41-11.82.45-2.23,0-3.19.73-3.27,3.12-.37,10.61-.41,9.49,12.5,9.65,1.64,0,3.28,0,4.92,0,2-.07,3.19.72,3.28,2.76.1,2.38-1.58,2.33-3.21,2.34-6.78,0-13.57,0-20.35.13a2.86,2.86,0,0,1-2.93-2.93c.08-5.85,0-11.72,0-17.58Z"/><path class="cls-1" d="M271.43,228.82c0-4.08,0-7.67,0-11.25,0-1.86.24-3.36,2.64-3.39s3.16,1,3.15,3.29c0,12.15,0,24.3.05,36.45,0,1.49-.24,2.73-2,3-1.53.21-2.27-.57-2.5-2-.27-1.72-1.17-1.35-2-.48-3.83,3.77-8.52,3.67-12.88,1.92-4.6-1.84-6.75-6-7.37-10.92a23.78,23.78,0,0,1,.6-10.35c2.16-6.71,8.12-9.94,14.88-8.1C267.56,227.36,269.11,228,271.43,228.82Zm-.05,12.74c-.06-.79-.18-2.59-.37-4.38-.46-4.21-2.43-5.83-7.05-5.82-4.39,0-7.36,2.27-7.58,6a62.75,62.75,0,0,0,0,8.78c.37,4.61,4.12,7.18,8.56,6.11C270,251.09,271.6,248.68,271.38,241.56Z"/><path class="cls-1" d="M364,179.32c-2.26,0-4.52.12-6.76,0-2.79-.19-3,1.18-2.3,3.31a7,7,0,0,0,7,5.24c2.69.06,5.39.12,8-.88,1-.39,2.32-1,2.86.57a2.94,2.94,0,0,1-1.2,3.83,14.8,14.8,0,0,1-22.62-12c-.11-2.91-.33-5.84.56-8.71,2-6.49,6.06-9,14.12-8.6,6.09.3,9.08,3,10.36,9.49a40.61,40.61,0,0,1,.36,4.69c.17,2.13-.74,3.12-2.94,3-2.47-.1-4.95,0-7.42,0Zm-2.71-5v-.08c1.57,0,3.15-.1,4.72,0,2.19.18,2.68-.71,2.36-2.78-.45-2.92-2.23-4.25-4.9-4.77-3-.58-5.69-.19-7.52,2.43-.94,1.34-2,3.11-1.13,4.68.71,1.28,2.48.31,3.77.47A22.1,22.1,0,0,0,361.29,174.36Z"/><path class="cls-1" d="M447.53,187.87a23.77,23.77,0,0,0,6-.86c1.09-.23,2.62-1.29,3,.68.32,1.56.09,3.33-1.84,3.87-12.35,3.51-23.24.16-22.44-16.06.48-9.82,5.31-13.85,14.81-13.4,7.14.34,12.67,8.09,10.77,15-.44,1.6-1.65,1.74-2.87,1.78-4.61.16-9.23.21-13.84.33-3.33.09-3.74.71-2.59,3.87C439.9,186.87,441.81,187.93,447.53,187.87Zm-2.41-21.38c-3.16-.26-5.41,1.53-6.71,4.86-.85,2.2-.28,3.16,2.13,3.11a44.42,44.42,0,0,1,8.08.13c3.53.58,4.12.19,3.31-3.41S449.52,166.47,445.12,166.49Z"/><path class="cls-1" d="M418.8,226.34c9.05-.09,14.73,5.84,14.44,15.77-.27,9.15-4.05,15-14.62,15.06-8,.05-13.59-5.94-13.73-14.78C404.73,232.72,410.18,226.43,418.8,226.34Zm8.9,15.73c-.25-1.32-.49-3.34-1-5.28-1.06-3.82-3.12-5.34-7.09-5.47-6.28-.22-9.35,3.47-8.84,11.09.25,3.79.45,8,5,9.5C422.19,254,427.17,251.27,427.7,242.07Z"/><path class="cls-1" d="M298.19,187.69c-2.91,3.69-6,5.35-10.1,5.11-5.09-.31-8.92-3.6-9.23-8.12-.39-5.74,2.54-9.83,7.92-10.72,2.21-.36,4.5-.2,6.74-.38,1.42-.12,3.51.7,3.57-1.85.05-2.35-.42-4.64-3.3-5.1a23.56,23.56,0,0,0-9.69.87c-1.1.29-2.32.93-2.77-.69-.38-1.37-.18-2.91,1.41-3.37,5.38-1.58,10.81-2.37,16.13.2,2.21,1.06,3.16,3,3.48,5.43.93,6.85.12,13.73.49,20.58.07,1.24-.29,2.25-1.73,2.45a2,2,0,0,1-2.4-1.79C298.57,189.68,298.46,189,298.19,187.69Zm-8.91.2c2.72.42,4.88-.81,6.73-2.81a5.7,5.7,0,0,0,1-6c-.65-1.94-2.66-1.17-4.13-1.22a25.43,25.43,0,0,0-4.36.2c-3.3.49-4.68,2.44-4.24,6C284.65,186.93,286.31,188.25,289.28,187.89Z"/><path class="cls-1" d="M361.53,252.73c-3.41,3.36-7.12,5.33-11.91,4.1-5.1-1.31-7.18-3.87-7.18-9.1a8.9,8.9,0,0,1,7.4-9.12,34.88,34.88,0,0,1,7.71-.73c1.13,0,3.08,1.07,3.13-1.21,0-2,.26-4.44-2.53-5.23-3.4-1-6.67.09-10,.61-1.15.18-2.82,1.53-3.41-.56a3.08,3.08,0,0,1,2.35-3.92c4.83-1.34,9.74-1.82,14.56.06a6.72,6.72,0,0,1,4.16,5.74c1,6.93.54,13.91.51,20.88,0,1.14-.2,2.4-1.7,2.49C362.1,256.89,362.68,254.46,361.53,252.73Zm-5.32-10.6c-1.28.09-2.4.1-3.52.25-4.09.56-5.73,2.68-5,6.38.68,3.28,3.32,4.73,7,3.79a14,14,0,0,0,4.07-2.31c2.57-1.7,2.5-4.24,1.9-6.62S357.66,242.5,356.21,242.13Z"/><path class="cls-1" d="M464.73,245.54c0,2.93,0,5.86,0,8.79,0,1.94-.72,3-2.75,2.95s-2.46-1.11-2.5-2.83q-.17-8.12-.47-16.21c-.19-4.92-1.58-6.45-5.76-6.58-4-.12-8.1,3.11-8.25,6.88-.2,5.06-.19,10.14-.1,15.2.05,2.65-1.25,3.3-3.56,3.12-1.37-.11-2.07-.68-2.09-2.07-.06-8.22-.17-16.44-.18-24.65,0-1.16-.12-2.65,1.71-2.78a2.35,2.35,0,0,1,2.68,2c.53,2.31,1.34,1.31,2.38.33,3.54-3.33,7.75-3.84,12.22-2.5s6.38,4.76,6.54,9.21c.12,3,0,6.08,0,9.12Z"/><path class="cls-1" d="M304.87,252.43c-2.61,3.88-6.36,4.92-10.61,4.75-4.74-.18-7.91-2.54-9-7.14-1.61-6.89-.72-13.91-.79-20.88,0-2.06,1.65-2.07,3.18-2.09,1.7,0,2.46.8,2.46,2.48q0,7.6,0,15.21c0,5.22,1.94,7.83,5.8,7.88s8.54-4.13,8.21-8.23c-.37-4.6,0-9.24-.11-13.86,0-2.08.41-3.46,2.91-3.55s2.87,1.42,2.89,3.45c.08,7.2.31,14.4.32,21.6,0,1.81,1,4.46-2.19,4.79S305.88,254.28,304.87,252.43Z"/><path class="cls-1" d="M463.16,162.49c2.59-.37,3.86.34,4.81,1.81,1.35,2.09,2.89,4,4.12,6.2,1.47,2.56,2.64,2.14,4,0,1.22-1.9,2.6-3.68,3.87-5.54a5.31,5.31,0,0,1,2.73-2.41c1.22-.38,2.59-.68,3.48.39s-.32,2.05-.91,2.91q-3.07,4.45-6.25,8.83a3.79,3.79,0,0,0,0,4.94c2.19,3,4.35,6,6.42,9.12.64,1,2.76,2.06,1,3.17-1.38.89-3.72,1.53-5.21-.48-1.87-2.54-3.73-5.1-5.39-7.78-1.5-2.42-2.59-3.11-4.33-.13-1.52,2.61-3.57,4.92-5.28,7.44-1.2,1.75-2.78,2.06-4.35.95-2-1.42,0-2.52.68-3.57,2-3,4.1-5.93,6.27-8.81,1.26-1.66,1.46-3.11.12-4.85-2.27-2.94-4.41-6-6.57-9-.55-.78-1.81-1.39-1.27-2.53S463,162.52,463.16,162.49Z"/><path class="cls-1" d="M308.6,177.29c0-2.71,0-5.42,1.23-7.94,3.13-6.58,12.31-9.66,18.88-6.35,1.47.74,2.43,1.78,1.81,3.49s-2,1.15-3.16.75a11.17,11.17,0,0,0-7.93.14c-3,1.15-4.89,3.17-5,6.55,0,1.24-.07,2.48-.11,3.71-.26,8.85,3.77,11.67,13.14,9.73,1.47-.31,3.44-2,4.08.78.52,2.24-.88,3.49-3.1,4a29.35,29.35,0,0,1-9.05.56c-5.63-.52-9.74-4.85-10.6-11C308.63,180.23,308.67,178.75,308.6,177.29Z"/><path class="cls-1" d="M374.52,240.64c0-1.67,0-3.81,0-5.95.06-2-.44-3.31-2.77-3.21-.95,0-1.84-.3-1.95-1.43a1.82,1.82,0,0,1,1.78-2.08c3-.13,3.55-2.19,4-4.51a16.57,16.57,0,0,1,.72-2.59,2.27,2.27,0,0,1,2.49-1.82c1.3.15,1.48,1.24,1.65,2.23a9.29,9.29,0,0,1,.18,2.35c-.21,2.64-.26,4.93,3.6,3.59,1.09-.37,1.93.38,2,1.66s-.05,2.58-1.55,2.48c-4.77-.34-4.44,2.48-4.11,5.82a98.36,98.36,0,0,1,.16,10.45c0,2.33.56,3.9,3.29,4,1.73.08,3.48.57,3.24,2.94s-2.23,2.26-3.85,2.35c-4.95.26-7.48-1.85-8.45-6.77C374.32,247.17,374.65,244.13,374.52,240.64Z"/><path class="cls-1" d="M329.8,257.16c-9.6.52-13.3-6.5-13.65-13.13-.07-1.23,0-2.48,0-3.71.07-10.54,9.32-16.84,19.22-13a5.74,5.74,0,0,1,2.16,1.53,2.41,2.41,0,0,1,.42,2.83c-.57,1-1.61.68-2.44.44a22.15,22.15,0,0,0-6.68-.78,6.48,6.48,0,0,0-6.56,4.83,18.09,18.09,0,0,0,.31,12.25c1.16,3.16,5.24,4.88,9.44,4.19,1.21-.19,2.35-.79,3.56-1,1-.21,2.43-1.83,3.12.05s.38,3.7-1.77,4.5A17.3,17.3,0,0,1,329.8,257.16Z"/><path class="cls-1" d="M494.1,177.26c0-2-.06-4,0-6.08.08-2.3,0-4.39-3.21-4.16a1.42,1.42,0,0,1-1.55-1.44c-.07-1,.42-2,1.37-2,3.46-.26,3.79-3,4.53-5.43.16-.54.23-1.11.43-1.63.42-1.1,1.11-2.16,2.35-2.12,1.48,0,1.48,1.48,1.66,2.54a12.74,12.74,0,0,1,.11,2.69c-.09,2.16.48,3.59,3.06,3,1.83-.41,2.84.44,3,2.2.24,2.13-1.29,2.52-2.83,2.29-2.81-.42-3.47.83-3.37,3.37.18,4.38.11,8.77.14,13.15,0,2.22.75,3.75,3.33,3.59,2.11-.13,3.08.73,2.95,3-.15,2.41-1.66,2.19-3.31,2.14-6-.19-8.54-2.64-8.7-8.67C494.05,181.53,494.1,179.39,494.1,177.26Z"/><path class="cls-1" d="M342.44,163.68c-.15,13.68-.2,23.41,0,25.66a3.1,3.1,0,0,1-.57,2.41,2.58,2.58,0,0,1-1.92.6c-2.26,0-3.33-.68-3.32-3.06,0-10.13-.11-20.25-.14-30.38,0-2.26.11-4.43-1.62-6.33-1.24-1.36-.82-2.5,1.2-2.63,1-.07,2,0,3-.14a3.32,3.32,0,0,1,2.7.43c1,.78.95,2.42.91,3Z"/><path class="cls-1" d="M266.33,166.85c2.11-2.21,3.68-4.43,6.82-4.36,1.7,0,3,.17,3.25,2a2.65,2.65,0,0,1-2.19,3.25c-5.81,1.63-7.15,3.44-7.13,9.36,0,4.17-.05,8.34,0,12.5,0,2-.75,2.78-2.81,2.72s-3-.82-3-3c.06-7.87,0-15.75,0-23.62,0-1.42-.24-3.17,2-3.25,1.88-.07,2.51,1.18,2.65,2.83A12.93,12.93,0,0,0,266.33,166.85Z"/><path class="cls-1" d="M399.15,242.16c0,3.94-.16,7.88.06,11.81.12,2.16-.69,2.59-2.62,2.79-2.14.23-3-.61-3.08-2.5-.13-3.37-.13-6.75-.16-10.12s0-6.53,0-9.79c0-1.58.14-3.18-1.67-4.06a1.57,1.57,0,0,1-.83-2c.27-.87,1.05-1.09,1.86-1.2l.34,0c5.77-.8,6.07-.53,6.07,5.3,0,1.69,0,3.37,0,5.06v4.73Z"/><circle class="cls-1" cx="395.14" cy="220.49" r="3.39"/></g></g></svg>