<svg xmlns="http://www.w3.org/2000/svg" viewBox="0 0 268.8 59.29"><defs><style>.cls-1{fill:#c33;}.cls-2{fill:#fff;}</style></defs><g id="Capa_2" data-name="Capa 2"><g id="Capa_1-2" data-name="Capa 1"><rect class="cls-1" width="268.8" height="59.29"/><path class="cls-2" d="M118.8,34.11H134l-8.1-13-14.7,23.5h-6.7l18-28.2a4.42,4.42,0,0,1,6-1.1,4.74,4.74,0,0,1,1,1l18,28.3h-6.7l-3.2-5.2H122.2l-3.4-5.3m70,5.2V14.91h-5.7v26.9a2.52,2.52,0,0,0,.9,2,2.72,2.72,0,0,0,2.1.9h26l3.4-5.2-26.7-.2M94.2,35a10.05,10.05,0,0,0,10.1-10,10.2,10.2,0,0,0-10.1-10.1h-25v29.7h5.7V20.11H93.8a4.8,4.8,0,0,1,4.8,4.8,4.87,4.87,0,0,1-4.8,4.8H77.7l17.1,14.9h8.3L91.6,35h2.6m-60.1,9.6H51.4a14.86,14.86,0,0,0,14.5-15.2,15.07,15.07,0,0,0-14.6-14.5H34.1a14.86,14.86,0,1,0-.8,29.7h.8m16.8-5.2H34.4a9.6,9.6,0,0,1,0-19.2H50.9a9.6,9.6,0,0,1,.6,19.2h-.6m108.5,5.2H177l3.3-5.2H159.7a9.6,9.6,0,1,1-.6-19.2h17.4l3.4-5.2H159.4a14.85,14.85,0,0,0-.7,29.7,1.7,1.7,0,0,1,.7-.1m69.9-5.2a9.75,9.75,0,0,1-9.3-7h24.4l3.4-5.2H220a9.75,9.75,0,0,1,9.3-7h16.8l3.4-5.2H229a14.85,14.85,0,0,0,0,29.7h17.6l3.4-5.2-20.7-.1"/></g></g></svg>