<svg xmlns="http://www.w3.org/2000/svg" viewBox="0 0 579.18 182.26"><defs><style>.cls-1{fill:#feea00;}.cls-2{fill:#007bbf;}.cls-3{fill:#009864;}.cls-4{fill:#fec81d;}.cls-5{fill:#00aecf;}.cls-6{fill:#00a14c;}.cls-7{fill:#00aed0;}.cls-8{fill:#737478;}.cls-9{fill:#737578;}.cls-10{fill:#757679;}.cls-11{fill:#747578;}.cls-12{fill:#76777b;}.cls-13{fill:#747579;}.cls-14{fill:#fffefb;}.cls-15{fill:#fffefc;}.cls-16{fill:#fff5da;}.cls-17{fill:#fff3d5;}.cls-18{fill:#ffe9aa;}.cls-19{fill:#ffebb1;}</style></defs><g id="Capa_2" data-name="Capa 2"><g id="Capa_2-2" data-name="Capa 2"><g id="Capa_1-2" data-name="Capa 1"><path class="cls-1" d="M145.64,49.16c-8.35-4.8-16.73-9.54-25-14.43a3.86,3.86,0,0,0-4.59.05C101,43.7,85.88,52.5,70.79,61.33l-9.74,5.74c-1.52,0-2.55-1.1-3.74-1.79-7-4-14-8.05-21-12-1.23-.69-2.32-1.6-3.5-2.38-.38-.25-.84-.5-.7-1.1,6-3.55,12-7.12,18-10.65Q78.66,22.37,107.25,5.62c2.25-1.32,4.55-2.56,6.81-3.87a2.34,2.34,0,0,1,2.62,0Q145,18.16,173.4,34.49a1.47,1.47,0,0,1,.21.22c0,.76-.67.87-1.14,1.14-4,2.28-8.15,4.28-12.24,6.39s-8.49,4.32-12.71,6.53C147,49.06,146.39,49.61,145.64,49.16Z"/><path class="cls-2" d="M84.46,146.17l-29.91-17q-15.24-8.67-30.49-17.31Q12.65,105.33,1.21,98.88a2,2,0,0,1-1.16-2q0-32.49,0-65c0-.45-.17-1,.2-1.35a3.28,3.28,0,0,1,1.44.6c7.68,5.09,15.48,10,23.23,15a3.39,3.39,0,0,1,1.77,3.29c-.09,9-.05,17.91,0,26.86a4.28,4.28,0,0,0,.11,1.71c-.2,1.33.63,1.91,1.65,2.49q27.9,15.74,55.77,31.51a5.88,5.88,0,0,1,.51.36c.63.48.58,1.2.58,1.87q0,15,0,30C85.25,145,85.4,145.84,84.46,146.17Z"/><path class="cls-3" d="M141.49,52.59c.63.41.33,1,.33,1.58,0,3.36,0,6.71,0,10.07q.28,38.39.12,76.77c0,2.67-.06,5.35-.05,8a1.56,1.56,0,0,1-.94,1.6q-24.07,13.6-48.11,27.26c-2.59,1.47-5.09,3.09-7.79,4.37a2.81,2.81,0,0,1-.5-2.08q0-13.17,0-26.35a2.66,2.66,0,0,1,.51-2.07q13.13-7.42,26.26-14.84a1.85,1.85,0,0,0,1.15-1.81q-.06-32.25,0-64.5c0-.31,0-.62-.08-.93,1.37-1.43,3.18-2.18,4.85-3.15,6.62-3.84,13.37-7.48,20-11.27C138.69,54.43,139.89,53.19,141.49,52.59Z"/><path class="cls-4" d="M145.64,49.16c3.68-1.52,7.08-3.59,10.63-5.36,5.84-2.92,11.7-5.79,17.34-9.09.94.32.62,1.12.62,1.74q.06,20.38.09,40.75,0,26.21-.07,52.4a2.11,2.11,0,0,1-1.05,2.18c-8.58,4.94-17.14,9.93-25.7,14.9a2.59,2.59,0,0,1-1.43.6,3.21,3.21,0,0,1-.15-1.68q-.06-41.05-.11-82.13C145.8,58.7,145.7,53.93,145.64,49.16Z"/><path class="cls-5" d="M26.75,78.05c-.42-.5-.22-1.11-.22-1.66,0-9,0-17.9,0-26.85a2.7,2.7,0,0,0-1.41-2.65C17.22,41.81,9.34,36.67,1.45,31.54c-.43-.28-.95-.47-1.21-1,4-2.94,8.49-5.18,12.78-7.68C25.56,15.59,38.16,8.42,50.66,1.07a5.69,5.69,0,0,1,6.59,0c8.15,4.83,16.43,9.45,24.66,14.15.17.1.31.24.61.47-4,2.31-7.84,4.58-11.71,6.81Q51.9,33.39,33,44.29c-1.63.94-3.24,1.92-4.91,2.79a2.27,2.27,0,0,0-1.33,2.36c.08,9.38.07,18.76.09,28.15A2.46,2.46,0,0,1,26.75,78.05Z"/><path class="cls-6" d="M85.08,151.76q0,15.26,0,30.5c-2.79-.91-5.22-2.57-7.77-4C62.07,170,46.9,161.65,31.65,153.41a3.88,3.88,0,0,1-2.41-4.06c.13-9.38.06-18.77.06-28.16v-2Z"/><path class="cls-7" d="M316.36,92.71c.43-3.53,0-7,.48-10.44a2.7,2.7,0,0,1,2.91-2.65c2.31-.07,4.62-.07,6.93,0s3.25,1,3.27,3.32c0,4.19,0,8.39,0,12.58q0,12.44,0,24.86c0,2.94-.88,3.81-3.84,3.81-2.31,0-4.62,0-6.93,0a3.8,3.8,0,0,1-3.85-2.41c-1.44-3.09-2.9-6.16-4.35-9.23-.22-.46-.46-.91-.91-1.77,0,3.46,0,6.47,0,9.47s-1,3.92-4,3.93c-2,0-4.09,0-6.14,0s-3-.88-3.21-2.89a11.66,11.66,0,0,1,0-1.57q0-17.77,0-35.55a8.72,8.72,0,0,1,.2-2.33,2.68,2.68,0,0,1,2.7-2.2c3,0,6,0,9,0a3.33,3.33,0,0,1,3,2.37c1.34,3,2.65,6,4,9C315.84,91.61,316.1,92.16,316.36,92.71Z"/><path class="cls-2" d="M339.75,44.18A20.45,20.45,0,0,0,335,34.61c-4-4.56-9.14-6.05-15.05-5.94-7.71.14-13.18,3.74-16.5,10.49-3.13,6.35-3.13,13.12-1.71,19.93a20,20,0,0,0,6.08,10.74,17,17,0,0,0,12.69,4.5c9.38.51,16.06-5.35,18.6-13.12A32.6,32.6,0,0,0,339.75,44.18ZM324.53,60c-2.12,2.77-5.57,2.69-7.68-.11-1.9-2.52-2.28-5.43-2.31-8.43s.51-5.91,2.51-8.37,5.23-2.65,7.29,0C327.72,47.25,327.81,55.67,324.53,60Z"/><path class="cls-2" d="M270.32,44.91c-1.69-9.1-8.63-16.67-19.08-16.21-10.1-.52-16.79,6.26-19,14.6a32.76,32.76,0,0,0,0,16.6,20.51,20.51,0,0,0,5.93,10c3.79,3.57,8.41,4.55,13.46,4.51,7.83-.07,13.37-3.69,16.74-10.59C271.36,57.77,271.51,51.34,270.32,44.91ZM255.5,59.11c-2.17,3.73-6.43,4-8.54.28A15,15,0,0,1,246.78,44c2.22-4.09,6.5-3.85,8.83.21a14.78,14.78,0,0,1,1.63,8A12.76,12.76,0,0,1,255.5,59.11Z"/><path class="cls-7" d="M372.49,101.59a26.51,26.51,0,0,0-.37-5.74C369.64,83.07,360.31,77,347.71,79.51c-6.57,1.32-10.65,5.79-13,11.84a30.35,30.35,0,0,0-1.33,16.08c1,6,3.68,11.08,8.85,14.59,3.75,2.55,8,2.84,12.37,2.67a16.85,16.85,0,0,0,13.5-7.19C371.55,112.82,372.68,107.5,372.49,101.59Zm-15.36,8c-2.13,3.58-6,3.75-8.42.39-2.76-3.88-2.84-11.91-.16-15.85,2.54-3.74,6.49-3.56,8.73.4a13.79,13.79,0,0,1,1.67,7.39A13.8,13.8,0,0,1,357.13,109.58Z"/><path class="cls-7" d="M579.16,101.84a31.31,31.31,0,0,0-.37-6.11c-2.52-12.64-11.87-18.79-24.51-16.18-6.58,1.35-10.61,5.87-12.95,11.91a30.27,30.27,0,0,0-1.39,15.3c.88,6.28,3.55,11.57,8.92,15.24,3.74,2.56,8,2.86,12.36,2.69a16.9,16.9,0,0,0,13.52-7.16C578.2,112.86,579.36,107.54,579.16,101.84Zm-15.29,7.59c-2.23,3.86-6.43,4.07-8.61.2a14.84,14.84,0,0,1,.07-15.54c2.21-3.76,6.32-3.52,8.53.26,1.29,2.2,1.75,4.19,1.75,7.71A13.38,13.38,0,0,1,563.87,109.43Z"/><path class="cls-7" d="M440.14,90.62a17,17,0,0,0-12.52-11.1,28.92,28.92,0,0,0-7.66-.47c-.69.54-1.48.24-2.23.29h0c-7.16,1.65-11.51,6.33-13.79,13a30.82,30.82,0,0,0-.95,15c1,6,3.66,11.08,8.84,14.58,3.5,2.36,7.48,2.74,11.57,2.69,6.77-.07,12-3,15.33-8.77C443.33,107.82,443.36,99.17,440.14,90.62Zm-13.29,18.74a5.35,5.35,0,0,1-4.3,3,4.69,4.69,0,0,1-4.42-2.76,15.84,15.84,0,0,1-.32-14.88c.91-2,2.49-3.39,4.74-3.32s3.71,1.77,4.67,3.71a13.44,13.44,0,0,1,1.35,6.72A13.74,13.74,0,0,1,426.85,109.36Z"/><path class="cls-7" d="M420,79.05q-.52,0-1.14.09c-.39.06-.76.12-1.09.2h0C418.48,79.29,419.27,79.59,420,79.05Z"/><path class="cls-5" d="M479.29,109.24a43.37,43.37,0,0,0,0,5.35c.5,4.13-1.72,6.45-5.06,8.13-3.88,2-8,2.15-12.25,1.9-10.53-.61-17.56-9.81-18.28-19.46-.41-5.44-.07-10.69,2.52-15.55,3.58-6.74,9.32-10.28,17-10.58a29.81,29.81,0,0,1,10.7,1.29c2.7.9,3.55,2.34,3,5.16a40.89,40.89,0,0,1-.85,4.78,2.33,2.33,0,0,1-2.41,1.82,20,20,0,0,1-4.37-.42c-7-1.46-11.74,2.22-12.07,9.33-.17,3.85.47,7.42,3.66,10.05a7.09,7.09,0,0,0,3.76,1.44c.9.11,1.31-.17,1.29-1.18-.06-2.88,0-5.76,0-8.65,0-3.34.86-4.18,4.17-4.18,1.94,0,3.88,0,5.82,0,2.25,0,3.28,1,3.35,3.22.08,2.52,0,5,0,7.55Z"/><path class="cls-7" d="M232.09,101.9V83.18c0-2.53.94-3.57,3.47-3.58q10.4-.06,20.79,0c2.24,0,3.19.78,3.47,3a20.77,20.77,0,0,1-.09,6.72c-.35,1.8-1.08,2.41-2.9,2.43-3.36,0-6.72.07-10.08,0-1.25,0-1.73.33-1.53,1.56a3,3,0,0,1,0,.79c-.18,1.18.19,1.66,1.5,1.59,2.15-.12,4.3,0,6.46,0a2.72,2.72,0,0,1,3.05,3c0,2,.06,4.09,0,6.13a2.56,2.56,0,0,1-2.9,2.75c-2.25,0-4.51,0-6.77,0-1,0-1.37.15-1.37,1.26,0,3.26,0,3.26,3.29,3.26,3,0,6,0,9,0,2.31,0,3.28.84,3.43,3.15a47.57,47.57,0,0,1,0,6c-.15,2.1-1.18,3-3.26,3q-11.18,0-22.36,0c-2.22,0-3.16-1.07-3.17-3.38Q232.08,111.35,232.09,101.9Z"/><path class="cls-2" d="M230.43,41.35c-.7-5.82-4.94-11.17-10.77-11.9-3.09-.38-6.18-.12-8.63-.24-3.37,0-6.11-.06-8.83,0-2.44.07-3.39,1.12-3.39,3.53q0,18.81,0,37.61c0,2.41,1,3.41,3.43,3.46,2,0,4.1,0,6.15,0,2.57,0,3.6-1,3.68-3.63.06-1.73,0-3.46,0-5.2s-.61-4.06.26-5,3.36-.3,5.13-.31c5.52,0,9.32-2.73,11.63-7.6A19.08,19.08,0,0,0,230.43,41.35Zm-14,5.64c-.46.86-3.47,1.57-4.17,1.06-.3-.22-.2-.57-.2-.87,0-1.46.08-2.92,0-4.37-.09-1.2.3-1.64,1.18-1.43,1.43.09,2.65,0,3.27,1.27A4.52,4.52,0,0,1,216.46,47Z"/><path class="cls-7" d="M282.49,124.7c-12.37.53-19.93-9-20.83-19.2-.44-4.94-.23-9.76,1.79-14.29,3-6.82,8.09-11.14,15.8-12a31,31,0,0,1,12.27,1c1.79.53,2.58,1.45,2.5,3.29a31.16,31.16,0,0,1-1,6.5,2.19,2.19,0,0,1-2.3,1.73,47.58,47.58,0,0,1-5.48-.38,8.94,8.94,0,0,0-10.06,8.29c-.36,3.49-.19,6.95,2.33,9.79s5.8,3.51,9.42,2.75a16.92,16.92,0,0,1,3.76-.2,2.25,2.25,0,0,1,2.29,1.8,31,31,0,0,1,1,6.5c.07,1.83-.65,2.65-2.38,3.19A29.07,29.07,0,0,1,282.49,124.7Z"/><path class="cls-7" d="M506.79,102.4c-.09-7.23,1.74-13.14,6.56-18A18.71,18.71,0,0,1,526.21,79a31.36,31.36,0,0,1,10.11,1c2.28.63,2.79,1.34,2.84,3.63a30.25,30.25,0,0,1-.74,6.07,2.26,2.26,0,0,1-2.42,2c-1.85.06-3.65-.29-5.48-.4-5.24-.31-8.84,2.4-9.89,7.58-.7,3.49-.45,6.9,1.7,9.89,2.38,3.29,5.74,4.14,9.57,3.42a26.43,26.43,0,0,1,3.76-.28,2.45,2.45,0,0,1,2.7,2.13,29.92,29.92,0,0,1,.81,6.68,2.54,2.54,0,0,1-1.9,2.59c-7.44,1.89-14.86,2.57-21.6-2.13-4.89-3.4-7.56-8.27-8.52-14.11A24.51,24.51,0,0,1,506.79,102.4Z"/><path class="cls-5" d="M219.7,107.11c0,4.51,0,9,0,13.52,0,2.61-.91,3.52-3.48,3.54q-3.22,0-6.45,0c-2.32,0-3.35-1-3.42-3.35s0-4.71,0-7.07c0-6.87,0-13.74,0-20.61,0-1.09-.29-1.46-1.41-1.41-1.83.09-3.67,0-5.5,0-2.07,0-3-.72-3.28-2.76a21.92,21.92,0,0,1,0-6.86,2.67,2.67,0,0,1,2.87-2.52c1.57-.07,3.15,0,4.72,0H226c3.08,0,4.05.94,4.1,4,0,1.73,0,3.46-.06,5.19a2.79,2.79,0,0,1-3.1,3c-1.94,0-3.89.07-5.82,0-1.09,0-1.44.25-1.42,1.38C219.74,97.78,219.7,102.44,219.7,107.11Z"/><path class="cls-4" d="M32.14,49.8a29.25,29.25,0,0,0,5.38,3.74q11.85,6.62,23.53,13.53c0,8.59,0,17.19,0,25.78,0,1.27-.24,1.38-1.37.8-6.15-3.15-12-6.81-18-10.2-3.15-1.78-6.23-3.67-9.37-5.45a2,2,0,0,1-1.17-2c.06-8.18.06-16.35.08-24.52C31.25,50.79,31.12,50,32.14,49.8Z"/><path class="cls-5" d="M493.53,124.18c-2.72,0-5.45,0-8.18,0s-3.67-1-3.74-3.71c0-1.62-.05-3.25,0-4.87.08-2.67,1-3.65,3.67-3.55,1.43.06,1.73-.38,1.71-1.74-.08-5.66-.07-11.33,0-17,0-1.19-.24-1.62-1.53-1.59-2.94.09-3.8-.84-3.85-3.83,0-1.47,0-2.93,0-4.4,0-2.86,1-3.88,3.91-3.9,5.41,0,10.81,0,16.22,0a7.09,7.09,0,0,1,.79,0c2,.21,2.89,1.15,2.91,3.17s0,3.77,0,5.66c0,2.28-1,3.4-3.24,3.25-1.7-.12-1.92.52-1.9,2,.09,5.66.06,11.33,0,17,0,1,.21,1.34,1.28,1.33,3.15,0,3.85.76,3.85,3.92,0,1.68,0,3.36,0,5,0,2.06-1,3.11-3.08,3.16-2.94.06-5.88,0-8.82,0Z"/><path class="cls-5" d="M84.46,146.17a1,1,0,0,0,.32-.84q0-16.47-.1-32.92c7.58-4.37,15.18-8.72,22.74-13.11,1.07-.62,1.23-.24,1.23.75,0,10.7.23,21.4-.17,32.1a1.45,1.45,0,0,1-.81,1.36q-11.07,6.3-22.1,12.65C85.19,146.37,84.84,146.61,84.46,146.17Z"/><path class="cls-6" d="M141.49,52.59a19.5,19.5,0,0,1-5.21,3.67c-7.83,4.41-15.72,8.72-23.45,13.31a2.21,2.21,0,0,1-.46.11L93,58.26c-1.35-.79-2.69-1.6-4.29-2.56C91,54.38,93,53.15,95,52c6.79-3.84,13.6-7.65,20.38-11.5,1.87-1.06,3.51-1.51,5.63-.19,6.59,4.08,13.32,7.93,20,11.88A3,3,0,0,1,141.49,52.59Z"/><path class="cls-2" d="M274,51.55V33.14c0-3,.94-3.92,4-3.93,2,0,4-.05,6,0,2.26.07,3.21,1.09,3.22,3.36,0,9.18,0,18.35,0,27.53,0,1.26.35,1.58,1.57,1.54,3-.08,6.09,0,9.13,0,2.47,0,3.63,1.15,3.72,3.63q.11,2.52,0,5c-.1,2.58-1.13,3.53-3.75,3.53q-10.08,0-20.16,0c-2.74,0-3.64-.93-3.65-3.71Q274,60.83,274,51.55Z"/><path class="cls-7" d="M388.88,96.77c0,4.61,0,9.22,0,13.83,0,1.07.23,1.46,1.37,1.43,3-.08,6.09,0,9.13,0,2.64,0,3.38.61,3.75,3.15A22,22,0,0,1,403,122c-.21,1.29-1.41,2.13-3,2.14-4.88,0-9.76,0-14.64,0-2.2,0-4.4,0-6.61,0a2.66,2.66,0,0,1-2.94-2.9q0-19.35,0-38.69a2.67,2.67,0,0,1,2.92-2.95c2.31-.07,4.62-.07,6.93,0s3.24,1.05,3.26,3.33C388.9,87.54,388.88,92.15,388.88,96.77Z"/><path class="cls-8" d="M216.51,144.61c-1,3.52-2,7-2.92,10.57a2.27,2.27,0,0,1-2.56,2.06,2.33,2.33,0,0,1-2.69-2.09c-.89-3.54-1.93-7-3.18-10.51,0,3.51,0,7,0,10.55,0,2.06-1.33,3-3.23,2.19-.61-.25-.65-.78-.65-1.3q0-9.84,0-19.67c0-.88.34-1.35,1.31-1.33,4.87.09,3.83-.66,5,3.64,1.11,4,2.16,8,3.35,12.37.95-3.49,1.8-6.6,2.64-9.72.45-1.67.89-3.33,1.33-5a1.49,1.49,0,0,1,1.66-1.3c4.65.09,3.91-.55,3.93,3.72,0,5.61,0,11.23,0,16.84,0,1.52-.57,1.82-1.95,1.84s-1.92-.42-1.89-1.89c.09-3.66,0-7.33,0-11Z"/><path class="cls-8" d="M246.06,143.66c0,4-.05,8.07,0,12.11,0,1.35-.5,1.72-1.76,1.69s-2.14,0-2.12-1.68c.06-6.34,0-12.68,0-19,0-1.31.51-1.62,1.77-1.73,1.88-.15,2.83.58,3.6,2.24,1.82,3.94,3.84,7.79,6.05,11.69v-1.71c0-3.51.06-7,0-10.53,0-1.56.77-1.65,2-1.66s1.94.18,1.93,1.69c-.07,6.18,0,12.37-.05,18.55,0,.75.44,2-.79,2s-2.91.76-3.81-.93c-.72-1.33-1.39-2.69-2.08-4l-4.44-8.77Z"/><path class="cls-8" d="M239,143.53c0,2.31.13,4.62,0,6.92-.42,6.07-3.81,7.84-9.43,7.17-3.19-.39-5-2.31-5.52-5.58s-.22-6.48-.29-9.72c0-1.78,0-3.57,0-5.35,0-1.26.26-2,1.74-1.91,2,.08,2.19.14,2.2,1.94,0,4,0,8,0,11.95a8.18,8.18,0,0,0,.37,2.94,3.49,3.49,0,0,0,6.73-.09,9.31,9.31,0,0,0,.36-3.1c0-3.88,0-7.76,0-11.64,0-1.43.42-2,2-2s2,.61,2,2.05c-.07,2.15,0,4.3,0,6.45Z"/><path class="cls-8" d="M328.3,156q-3-9.9-6.07-19.78c-.37-1.21-1.32-1.17-2.28-1.12s-2.2-.33-2.63,1.08l-6.06,19.77c-.14.45-.28.94.16,1.32.9.76,3.41,0,3.79-1.13,1.06-3.22,1.06-3.22,4.45-3.22,3.8,0,3.8,0,4.47,2.41.63,2.23.63,2.19,3.05,2.13C328.27,157.42,328.61,157,328.3,156Zm-6.78-6.39h-.16c-4.37.25-4.37.25-3.17-3.89.47-1.63.95-3.25,1.43-4.88l.35,0c.74,2.6,1.48,5.2,2.24,7.79C322.4,149.32,322.28,149.68,321.52,149.6Z"/><path class="cls-8" d="M311.82,138.89a5.69,5.69,0,0,0-5.55-3.88c-2.1,0-4.2.05-6.29,0-1.35-.06-1.72.49-1.69,1.76.06,3.09,0,6.18,0,9.27v9.75c0,.62-.1,1.28.72,1.55,2,.66,3.11-.09,3.12-2.16V153c0-3.45,0-3.45,3.5-3.51,3.25-.06,5.3-1.43,6.29-4.25A8.77,8.77,0,0,0,311.82,138.89Zm-3.4,3.69a4.29,4.29,0,0,1-5.85,3.67c-.47-.2-.41-.55-.42-.9,0-1,0-2.09,0-3.14a20.84,20.84,0,0,0,0-2.5c-.18-1.32.42-1.55,1.59-1.53C307.1,138.24,308.56,139.55,308.42,142.58Z"/><path class="cls-8" d="M270,145.33c.1-3.42,1.32-7.21,5.34-9.44,3-1.66,6.16-1.4,9.3-.38,1,.33.82,1.21.69,2a1.11,1.11,0,0,1-1.42,1.05c-.31-.05-.63-.05-.93-.12-4.55-1-7.92,1.14-8.79,5.67a10.42,10.42,0,0,0,.45,5.87,6.62,6.62,0,0,0,8.11,4.19c1.11-.24,2.34-.75,2.63,1.08a1.48,1.48,0,0,1-1.24,1.93C276.22,159.59,270,154.79,270,145.33Z"/><path class="cls-7" d="M429.44,70.44a27.3,27.3,0,0,0-2.59-3.91c-1.82-2.51-4.49-2.66-6.52-.3-1.66,1.94-3.31,3.9-4.89,5.91-1.82,2.32-.88,5.21,2,6.28h0l2.56,0h0q4.23-1.85,8.27-4.1A2.7,2.7,0,0,0,429.44,70.44Z"/><path class="cls-7" d="M417.42,78.41h0a5.44,5.44,0,0,0,1.32.13,5.77,5.77,0,0,0,1.24-.16h0Z"/><path class="cls-8" d="M291.07,135.09c1.1,0,2.2,0,3.3,0s1.48.63,1.48,1.67-.23,1.7-1.39,1.54-1.51.27-1.49,1.46c.07,4.39.06,8.79,0,13.19,0,1,.27,1.45,1.31,1.3,1.31-.18,1.58.55,1.57,1.69s-.51,1.56-1.64,1.53c-2.14-.06-4.3-.07-6.44,0-1.19,0-1.6-.51-1.6-1.59s.24-1.79,1.5-1.63c1,.13,1.38-.22,1.36-1.29q-.07-6.67,0-13.35c0-1.07-.34-1.43-1.35-1.3-1.25.16-1.51-.6-1.51-1.62s.39-1.68,1.59-1.6S290,135.09,291.07,135.09Z"/><path class="cls-8" d="M264.47,157.43c-1.15,0-2.3,0-3.46,0s-1.36-.7-1.37-1.64.23-1.72,1.39-1.56,1.5-.32,1.48-1.48c-.07-4.34-.06-8.69,0-13,0-1-.15-1.61-1.34-1.45s-1.53-.52-1.53-1.59.38-1.65,1.57-1.62c2.2.05,4.4.06,6.6,0,1.22,0,1.53.59,1.54,1.65s-.37,1.73-1.55,1.57-1.33.29-1.31,1.31q.07,6.68,0,13.35c0,1.06.34,1.41,1.35,1.28,1.21-.15,1.54.52,1.52,1.6s-.37,1.68-1.57,1.61S265.57,157.43,264.47,157.43Z"/><path class="cls-8" d="M330.12,146.23c0-3.15.06-6.3,0-9.44,0-1.62.8-1.71,2.07-1.74s1.84.41,1.82,1.8c-.07,5.19,0,10.38-.07,15.57,0,1.59.47,2,1.93,1.84,1.72-.13,3.46,0,5.19,0,1.13,0,1.46.48,1.45,1.52s-.12,1.74-1.42,1.72c-3.1,0-6.19-.06-9.29,0-1.23,0-1.69-.41-1.67-1.63C330.15,152.62,330.12,149.42,330.12,146.23Z"/><path class="cls-8" d="M369.46,154.48q2.27-6.75,4.56-13.5c.17-.48.18-1.07.69-1.37a1.19,1.19,0,0,1,1.83,1.15q0,7.71,0,15.41c0,.49.32,1.22-.68,1.27s-.9-.61-.9-1.25c0-4.08,0-8.17-.26-12.32-.77,2.23-1.55,4.46-2.31,6.69q-1,2.82-1.93,5.64c-.21.61-.39,1.16-1.24,1.13s-.9-.58-1.09-1.12c-1.43-4.18-2.87-8.37-4.55-12.54,0,3.88,0,7.77,0,11.65,0,.7.75,2.06-.76,2.06S362,156,362,155.32c-.07-4.76,0-9.53,0-14.3,0-.52-.44-1.33.61-1.48a1.46,1.46,0,0,1,1.86,1.15c1.31,4.09,2.7,8.15,4.07,12.21.18.53.38,1,.57,1.57Z"/><path class="cls-9" d="M454.34,156.1c-1.62-5.14-3.27-10.27-4.91-15.41-.19-.59-.29-1.17-1.18-1.19s-1.07.55-1.29,1.24c-1.52,4.79-3.1,9.56-4.6,14.35-.3.95-.61,1.5-1.79,1.38a24,24,0,0,0-4.56,0c-1.55.13-2.08-.27-2-1.94.13-4.56,0-9.12,0-13.69,0-.6.16-1.35-.87-1.29s-.63.82-.63,1.31c0,2.51,0,5,0,7.55s.06,5,0,7.55c0,1.14.21,1.56,1.45,1.51,2.62-.1,5.25-.09,7.87,0a1.57,1.57,0,0,0,1.85-1.35c.94-3.1,1-3.1,4.13-3.08,1.3,0,2.87-.35,3.83.24.8.49.93,2.12,1.26,3.28.22.77.69,1.08,1.38.84S454.46,156.51,454.34,156.1Zm-8.4-4.07c-.91,0-.91-.43-.67-1.08.09-.25.15-.5.23-.75l2.69-8.38c1.13,3.55,2.17,6.79,3.26,10.2C449.48,152,447.71,152,445.94,152Z"/><path class="cls-9" d="M397,153.7V141.48c0-.36,0-.73,0-1.1,0-.58.2-.85.82-.86s.76.36.76.9c0,5.39,0,10.79,0,16.19,0,.33.11.79-.46.81s-1.15.1-1.49-.57c-.54-1.08-1.14-2.12-1.71-3.18q-2.55-4.68-5.09-9.38c-.21-.39-.28-.9-.95-1.15v12.24c0,.42,0,.84,0,1.26s-.07.8-.68.8-.85-.26-.84-.84,0-1.36,0-2c0-4.56,0-9.12,0-13.68,0-.5-.29-1.22.63-1.34a1.3,1.3,0,0,1,1.48.85c2.39,4.47,4.82,8.92,7.23,13.37Z"/><path class="cls-10" d="M486.47,150l.69-.28c2.59-1.05,3.65-3.3,3-6.44-.45-2.36-2.22-3.72-4.89-3.75-1.31,0-2.62,0-3.93,0-.77,0-1.16.2-1.16,1,0,5.29,0,10.58,0,15.86,0,.58.1,1,.86,1s.81-.46.81-1c0-1.57,0-3.15,0-4.71,0-.6-.46-1.57.53-1.71s2.14-.44,2.81,1c.88,1.84,2,3.53,3,5.33.51,1,1.09,1.46,2.3.94Zm-1.5-1.07c-3.06.17-3.06.17-3.06-2.83v-1.26c0-1.05,0-2.1,0-3.14,0-.39-.13-1,.46-1,1.7,0,3.51-.55,5,.71s1.55,2.92,1.23,4.63A3.61,3.61,0,0,1,485,148.93Z"/><path class="cls-11" d="M505.68,144.08a6.41,6.41,0,0,0-6.59-4.79c-3.14.05-5.38,1.73-6.53,4.93a15,15,0,0,0-.72,4.24,12.1,12.1,0,0,0,1.83,6.46c2.36,3.4,7.7,3.84,10.38.69C507,152.16,507.06,148.15,505.68,144.08Zm-3.2,11.1a4.64,4.64,0,0,1-6.93-.3c-2.67-3.07-2.81-9.27-.27-12.44,2.29-2.87,5.93-2.72,8.06.34,1.19,1.7,1.5,3.64,1.5,6.22A8.4,8.4,0,0,1,502.48,155.18Z"/><path class="cls-9" d="M408,140.25c-.2-.64-.62-.71-1.19-.73-.8,0-.94.49-1.12,1-1.65,5.17-3.31,10.34-4.94,15.52-.13.41-.75,1,.07,1.3s1.18-.23,1.43-1c1.18-3.4,1.2-3.39,4.84-3.39,3.31,0,3.36,0,4.36,3.18.33,1.06.77,1.53,2,1C411.56,151.58,409.74,145.92,408,140.25ZM404.51,152c-.91,0-.91-.43-.67-1.08.09-.25.14-.5.22-.75.86-2.68,1.73-5.36,2.7-8.38,1.13,3.55,2.17,6.79,3.26,10.2C408.05,152,406.28,152,404.51,152Z"/><path class="cls-12" d="M468.27,148.39c0-2.47.05-4.94,0-7.4,0-1.2.38-1.53,1.54-1.49,2.41.09,4.83,0,7.24,0,.43,0,1.09-.19,1.11.51s-.62.59-1.07.59c-1.94,0-3.88,0-5.82,0-.89,0-1.36.16-1.32,1.19.08,1.73.05,3.46,0,5.19,0,.76.25,1,1,1,1.42,0,2.83,0,4.25,0,.4,0,.93-.09.86.57s-.52.42-.85.43c-1.37,0-2.73,0-4.1,0-.9,0-1.19.3-1.16,1.18.05,1.73,0,3.46,0,5.19,0,.81.27,1.11,1.09,1.09,2.1,0,4.2,0,6.3,0,.38,0,.95-.14.93.51s-.58.47-1,.48c-2.62,0-5.25,0-7.87,0-.93,0-1.17-.36-1.16-1.2C468.29,153.63,468.27,151,468.27,148.39Z"/><path class="cls-11" d="M460.31,155c1.43-4.73,2.75-9.12,4.08-13.51a7.2,7.2,0,0,0,.28-.9c.12-.83.58-1.29,1.39-1s.21,1,.09,1.41c-1.51,5.11-3.08,10.21-4.65,15.31-.17.57-.25,1.17-1.16,1.18s-1.12-.47-1.34-1.18c-1.53-5-3.11-10.09-4.6-15.16-.13-.44-1-1.18,0-1.55s1.23.34,1.46,1.14c1.34,4.57,2.73,9.12,4.1,13.68C460,154.49,460.09,154.58,460.31,155Z"/><path class="cls-13" d="M418.67,147.94a9.67,9.67,0,0,1,1-4.33c2.2-4.4,6.18-5,10.13-3.8.43.13.86.3.66.85s-.68.34-1.08.26c-4.45-.92-6.75,0-8.29,3.43-1.77,3.91-.74,9,2.26,11.18a6.19,6.19,0,0,0,5.1.87c.3-.05.59-.21.9-.25s1-.3,1.16.38-.5.55-.88.68C423.65,159.33,418.67,155.37,418.67,147.94Z"/><path class="cls-10" d="M381.79,157.43h-2.52c-.33,0-.66,0-.71-.44a.47.47,0,0,1,.59-.54c2.4.5,2-1.16,2-2.53,0-3.93,0-7.86,0-11.8,0-1.16-.29-1.65-1.49-1.5-.43.06-1.1.17-1.12-.49,0-.84.71-.58,1.17-.59,1.52,0,3.05,0,4.57,0,.37,0,.92-.18,1,.48s-.48.67-.87.6c-1.68-.3-1.69.68-1.67,1.91,0,4.15.06,8.29,0,12.43,0,1.18.29,1.64,1.48,1.49.39,0,1.1-.25,1.06.51s-.7.43-1.11.46C383.37,157.47,382.58,157.43,381.79,157.43Z"/><path class="cls-8" d="M351.12,151.82c-.73,0-1.46,0-2.19,0-.39,0-.94.09-.89-.55s.48-.45.85-.45h4.37c.36,0,.79-.05.82.47s-.42.51-.77.52C352.58,151.83,351.85,151.82,351.12,151.82Z"/><path class="cls-14" d="M161.39,80.23c.1-1.9.17-3.33.23-4.77a.71.71,0,0,1,.54-.68,15.65,15.65,0,0,0,3.8-2.27,10.64,10.64,0,0,0-.11,4.55c.1.34.05.76-.35.66C163.52,77.2,162.65,78.73,161.39,80.23Z"/><path class="cls-14" d="M173.28,53.68c0,1.82,0,3.27,0,4.71,0,.39,0,.89-.51.75-1.81-.52-2.49.84-3.39,1.88-.09.11-.26.14-.56.3.26-1.58.9-3,.07-4.51-.28-.51.3-.72.72-.77C171.06,55.87,172.05,54.94,173.28,53.68Z"/><path class="cls-14" d="M161.4,105c.33-1.47.94-2.86,0-4.25a.44.44,0,0,1,.32-.72c1.76-.18,2.95-1.36,4.41-2.72-.32,1.78-1,3.19-.12,4.61.17.29.09.72-.32.71C163.82,102.59,162.71,103.89,161.4,105Z"/><path class="cls-15" d="M158.66,62.38c.26.89-.18,1.36-.34,1.89s-.41,1.07,0,1.49c1.3,1.37.27,1.67-.84,1.91-1.4.31-2.21,1.5-3.58,2.33.36-1.62,1.11-3,.18-4.5-.2-.32.19-.56.52-.61C156.23,64.66,157.4,63.63,158.66,62.38Z"/><path class="cls-15" d="M151.29,106.21a10.89,10.89,0,0,0-.09,4.46c.11.41-.07.81-.54.72-1.94-.39-2.59,1.14-3.64,2.52,0-1.78,0-3.31,0-4.85,0-.36.41-.45.69-.56A15.34,15.34,0,0,0,151.29,106.21Z"/><path class="cls-14" d="M154.15,95.4c.2-1.8.76-3.05,0-4.33-.24-.42.17-.79.59-.94a30.79,30.79,0,0,0,4-2.4c.27.47,0,.83-.2,1.15a2.44,2.44,0,0,0,0,2.79c.22.32.72,1.18-.25,1.09C156.52,92.6,155.48,93.78,154.15,95.4Z"/><path class="cls-15" d="M166.25,123.86c-.67,1.91-1,3.37-.17,4.8a.4.4,0,0,1-.4.64c-1.84-.21-3,.9-4.22,2.12.16-1.5.87-2.93,0-4.33a.32.32,0,0,1,.23-.49C163.39,126.41,164.58,125.19,166.25,123.86Z"/><path class="cls-15" d="M168.94,86.15c.23-1.48.84-2.86,0-4.29-.24-.41.11-.73.53-.73,1.58,0,2.66-.87,3.74-2.35.15,1.75-.22,3.07.08,4.38.11.44-.18.66-.56.79A16.81,16.81,0,0,0,168.94,86.15Z"/><path class="cls-15" d="M146.87,60.54v-4a.84.84,0,0,1,.38-.81l4.11-2.34c-.52,1.69-1.31,3.17.59,4.58C149.6,58.18,148,58.91,146.87,60.54Z"/><path class="cls-15" d="M165.75,45.72a5.19,5.19,0,0,0,.1,3.07c.1.36.37,1.05-.28.94-2.06-.36-2.92,1.2-4.24,2.7.24-1.88.89-3.38,0-4.88-.25-.45.27-.6.63-.66a6.94,6.94,0,0,0,3.36-1.9C165.91,45,165.94,45.31,165.75,45.72Z"/><path class="cls-15" d="M173.33,106.47a6.85,6.85,0,0,0-.14,1.84c.33,1.61.26,2.69-1.88,2.55-.83,0-1.12,1.11-1.78,1.59-.59,0-.52-.32-.36-.69a3.92,3.92,0,0,0-.14-3c-.32-.58-.18-1,.6-1,1.43,0,2.37-1,3.32-1.89C173.52,105.76,173.46,106.1,173.33,106.47Z"/><path class="cls-15" d="M151.2,81.18c-.3,1.54-.67,3,.1,4.47.22.43,0,.79-.47.67-1.84-.43-2.71.9-3.86,2.37-.08-1.8.3-3.22,0-4.63a.54.54,0,0,1,.47-.56C148.94,83.17,149.93,82,151.2,81.18Z"/><path class="cls-15" d="M158.52,115.31a3,3,0,0,0,.1,2.72c.22.37.61,1.25-.23,1.2-1.89-.1-2.91,1.21-4.47,2.52.45-1.77,1.2-3.15.21-4.54-.26-.36,0-.71.49-.73a5.87,5.87,0,0,0,3.52-1.87C158.75,114.58,158.64,114.94,158.52,115.31Z"/><path class="cls-15" d="M151.17,133.22a4.34,4.34,0,0,0,.09,3.84c.16.29.31.89-.27.78-2.05-.38-3,1-4,2.46a30.79,30.79,0,0,0-.06-4.42c-.06-.34,0-.67.39-.76C148.77,134.81,149.83,133.83,151.17,133.22Z"/><path class="cls-16" d="M158.52,115.31c-.06-.27-.08-.56-.38-.7.11-.23.33-.58.49-.43C159,114.53,158.81,115,158.52,115.31Z"/><path class="cls-17" d="M169.17,111.76c.06.26.07.55.36.69-.09.25-.35.58-.52.41C168.69,112.53,168.89,112.1,169.17,111.76Z"/><path class="cls-18" d="M173.33,106.47c-.09-.25-.06-.57-.38-.69.11-.23.35-.53.52-.35S173.59,106.15,173.33,106.47Z"/><path class="cls-19" d="M165.75,45.72c-.07-.28-.08-.58-.39-.73.13-.22.4-.5.56-.32S166,45.4,165.75,45.72Z"/></g></g></g></svg>