<?xml version="1.0" encoding="utf-8"?>
<!-- Generator: Adobe Illustrator 25.2.0, SVG Export Plug-In . SVG Version: 6.00 Build 0)  -->
<svg version="1.1" id="Capa_1" xmlns="http://www.w3.org/2000/svg" xmlns:xlink="http://www.w3.org/1999/xlink" x="0px" y="0px"
	 viewBox="0 0 110.4 109.8" style="enable-background:new 0 0 110.4 109.8;" xml:space="preserve">
<style type="text/css">
	.st0{fill:url(#path8615_1_);}
	.st1{fill:url(#path8620_1_);}
</style>
<g id="layer1" transform="translate(-473.36088,-251.72485)">
	<g id="g1894" transform="translate(428.42338,184.2561)">
		
			<linearGradient id="path8615_1_" gradientUnits="userSpaceOnUse" x1="100.2275" y1="99.8933" x2="154.8275" y2="45.1107" gradientTransform="matrix(1 0 0 -1 -44.9375 177.2219)">
			<stop  offset="0" style="stop-color:#3A7FBA"/>
			<stop  offset="1" style="stop-color:#396A95"/>
		</linearGradient>
		<path id="path8615" class="st0" d="M99.8,67.5c-28,0-26.3,12.2-26.3,12.2l0,12.6h26.8V96H62.9c0,0-17.9-2-17.9,26.2
			c0,28.3,15.7,27.3,15.7,27.3h9.3v-13.1c0,0-0.5-15.7,15.4-15.7s26.5,0,26.5,0s14.9,0.2,14.9-14.4s0-24.2,0-24.2
			S129,67.5,99.8,67.5z M85,75.9c2.7,0,4.8,2.2,4.8,4.8s-2.2,4.8-4.8,4.8s-4.8-2.2-4.8-4.8S82.3,75.9,85,75.9z"/>
		
			<linearGradient id="path8620_1_" gradientUnits="userSpaceOnUse" x1="133.8035" y1="65.0188" x2="192.4441" y2="8.8381" gradientTransform="matrix(1 0 0 -1 -44.9375 177.2219)">
			<stop  offset="0" style="stop-color:#FFE054"/>
			<stop  offset="1" style="stop-color:#FCC234"/>
		</linearGradient>
		<path id="path8620" class="st1" d="M100.5,177.3c28,0,26.3-12.2,26.3-12.2l0-12.6H100v-3.8h37.4c0,0,17.9,2,17.9-26.3
			c0-28.3-15.7-27.3-15.7-27.3h-9.3v13.1c0,0,0.5,15.7-15.4,15.7s-26.5,0-26.5,0s-14.9-0.2-14.9,14.4c0,14.6,0,24.2,0,24.2
			S71.3,177.3,100.5,177.3z M115.3,168.8c-2.7,0-4.8-2.2-4.8-4.8s2.2-4.8,4.8-4.8s4.8,2.2,4.8,4.8
			C120.1,166.7,118,168.8,115.3,168.8z"/>
	</g>
</g>
</svg>
