<?xml version="1.0" encoding="utf-8"?>
<!-- Generator: Adobe Illustrator 25.2.0, SVG Export Plug-In . SVG Version: 6.00 Build 0)  -->
<svg version="1.1" id="Capa_1" xmlns="http://www.w3.org/2000/svg" xmlns:xlink="http://www.w3.org/1999/xlink" x="0px" y="0px"
	 viewBox="0 0 32 32" style="enable-background:new 0 0 32 32;" xml:space="preserve">
<style type="text/css">
	.st0{fill:#2A7AE4;fill-opacity:0.75;}
</style>
<path class="st0" d="M31.3,24.7L24,17.4c-1.5-1.4-3.6-1.8-5.4-0.9L12,9.9V6L4,0L0,4l6,8h3.9l6.6,6.7c-0.8,1.8-0.6,3.9,0.9,5.3
	l7.3,7.4c0.9,0.9,2.4,0.9,3.3,0l3.3-3.3C32.2,27.1,32.2,25.6,31.3,24.7z M20.7,14c1.8,0,3.4,0.7,4.7,1.9l1.2,1.2
	c0.9-0.4,1.9-1.1,2.7-1.9c2.3-2.3,3.1-5.6,2.4-8.5c-0.1-0.6-0.8-0.8-1.2-0.4l-4.6,4.7l-4.2-0.8l-0.7-4.2l4.6-4.6
	c0.4-0.4,0.2-1.1-0.4-1.2c-2.9-0.8-6.2,0.1-8.5,2.4C14.8,4.4,14,6.8,14,9.1l5.2,5.1C19.7,14.1,20.2,14,20.7,14z M14.2,19.1l-3.5-3.5
	l-9.6,9.5c-1.6,1.6-1.6,4.1,0,5.7s4.1,1.6,5.7,0l7.7-7.8C14.1,21.8,13.9,20.5,14.2,19.1z M4,29.5c-0.9,0-1.5-0.6-1.5-1.5
	c0-0.8,0.6-1.5,1.5-1.5c0.8,0,1.5,0.7,1.5,1.5C5.5,28.8,4.8,29.5,4,29.5z"/>
</svg>
