<svg xmlns="http://www.w3.org/2000/svg" viewBox="0 0 512.23 508.8"><defs><style>.cls-1{fill:#2a7ae4;}</style></defs><g id="Capa_2" data-name="Capa 2"><g id="Capa_1-2" data-name="Capa 1"><path class="cls-1" d="M512,321.35l.21,2.44c-2.77,9.54-5.58,19.07-8.29,28.62-2.18,7.67-4.26,15.37-6.37,23.06-3.64,13.29-9.44,16-22.62,10,0,4.87-.2,9.42,0,13.93.84,15.29,1.91,30.56,2.76,45.84.82,14.95,1.58,29.9,2.19,44.85.44,11-5.56,18.13-15.06,18.41-10.39.31-16.74-6.42-17.36-17.55-1.45-25.74-3.2-51.46-4.81-77.19-.4-6.3-.69-12.61-1.1-18.92a17.88,17.88,0,0,0-.73-3.08l-1.35-.09c-.48,3-1.21,6.06-1.41,9.12C437,419,436,437.27,434.79,455.52c-.85,13.11-1.7,26.22-2.94,39.29-.81,8.59-8.1,14-17.29,13.65a15.73,15.73,0,0,1-14.83-15.34c0-7.31.6-14.62,1.09-21.92.86-12.61,1.88-25.2,2.76-37.8,1.62-23.22,3.32-46.43,4.76-69.66,1.08-17.37,1.82-34.76,2.71-52.14l-1.52-.49c-2.89,4.4-5.82,8.79-8.66,13.23-3.3,5.16-7.93,7.77-14.36,7.32a15.07,15.07,0,0,1-13-10.11q-10.22-28.85-20.16-57.78c-2.58-7.52.14-13.65,6.85-16.54,7.35-3.17,14.91-.9,18.45,6.05,3.31,6.52,6.08,13.32,9.1,20,1.16,2.55,2.35,5.08,4,8.6,2-2.78,3.4-4.91,5-6.93,5.45-7.08,10-15.26,16.62-21,19.52-16.84,54-12.91,67.79,12.14,8.45,15.3,17.43,30.3,26.08,45.49C509,314.73,510.44,318.08,512,321.35Zm-37.79,37,1.55.12c1.4-9.38,2.35-18.85,4.34-28.1,1.35-6.25-2.49-9.65-5.89-13.79Z"/><path class="cls-1" d="M.11,378.53l0-.17c-.37-3.31,1.14-6.59,1.19-9.9.2-14.5.18-29,.49-43.5a23.71,23.71,0,0,1,1.94-9.12c6.82-15,13.85-29.91,21-44.78,6.18-12.94,15.58-22.32,30.48-23.63,17.36-1.53,32.95,3.32,44.22,17.21,10.45,12.88,19.46,26.91,29.68,40a1.21,1.21,0,0,0,.43.35c17.25,8.51,35.05,15.89,52.28,24.46a.87.87,0,0,1,.44.95c-4.42,18.32-13.62,22.78-22.46,19.3-15.79-6.22-31.55-12.52-47.09-19.33-3.24-1.42-5.56-5-8.17-7.78-1.81-1.9-3-4.37-4.84-6.26l-.07,0c.52,5.37.78,10.77,1.43,16.13,4.43,36.53,8.65,73.09,14.73,109.41a23.89,23.89,0,0,1-.64,10.43c-3.69,13.14-1.11,26.39-1.35,39.59-.22,12.71-12.09,20.35-23.46,15.32-7.43-3.28-9.51-9.73-9.57-17.2-.15-17.5.18-35-.55-52.5-.58-13.76-2.44-27.46-3.82-41.19A26.89,26.89,0,0,0,75,391.73l-1.37,0a33.86,33.86,0,0,0-.79,4.75c-.31,10.15.3,20.41-1,30.44C70.13,441,67.09,455,64.43,469c-2.31,12.14-5,24.22-7.71,36.25a1,1,0,0,1-.57.68c-19.19,8.22-32.09-3.1-29.1-17.37,4.12-19.67,8.4-39.3,12.16-59,1.14-6,1.07-12.28,1-18.43-.12-22-.27-44-.82-65.95-.21-8.53-1.48-17-2.27-25.56l-1.77-.39c-1.18,3-3.06,6-3.4,9.1-1.57,14.31-1.81,28.78-3.24,43.09a12.84,12.84,0,0,0,0,2.84c.93,7.83-3.33,13.94-10.24,15.12-8.06,1.37-14.24-1.4-16.79-7.49C1.23,380.74.63,379.65.11,378.53Z"/><path class="cls-1" d="M198.47,253.34c8.52-.93,15.89-1.89,23.28-2.52,15.38-1.3,30.77-3.26,46.17-3.41,14.86-.14,27,6.25,34.49,19.93,8.15,14.9,16.76,29.55,24.45,44.68,2.45,4.84,3.1,10.79,3.71,16.33,1.93,17.34,3.47,34.71,5.1,52.08.75,7.92-4.48,14.88-11.86,16-9.47,1.42-16.15-2.79-17.4-11.94-1.68-12.34-2.64-24.77-3.89-37.16-.71-7.11-.52-14.46-2.36-21.26-1.59-5.87-5.49-11.11-8.37-16.63l-1.53.34c-.16,1.67-.44,3.34-.46,5-.39,25.48-.7,51-1.13,76.45-.07,4.65-.43,9.31-.85,13.95-1.75,19.18,2.48,37.68,6.26,56.25,2.09,10.25,4.25,20.5,5.73,30.85,1.21,8.42-3.69,14.75-11.37,16.07-8.87,1.51-15.72-2.71-17.54-11.46-4.25-20.48-9-40.91-12-61.58-1.72-11.92-.36-24.28-.39-36.44a16.49,16.49,0,0,0-.07-4,12.49,12.49,0,0,0-1.84-3.09c-.94.94-2.56,1.79-2.72,2.85-3.46,22.24-4.78,44.56-2.75,67.06,1,11.09,1.34,22.25,1.48,33.39.09,7.62-6.1,13.13-14,13.34-8.49.23-14.79-4.63-15.16-12.47-1.14-24.1-2.66-48.22-2.69-72.32,0-13,2.79-26.07,4.17-39.11,1.27-12.06,2.88-24.11,3.4-36.21.92-21.46,1.09-42.94,1.68-64.42.1-3.51-.93-4.75-4.63-4.21q-24.15,3.48-48.35,6.58a14.77,14.77,0,0,1-15.81-19.85c7.87-20.66,16.12-41.19,24.48-61.66,3.35-8.19,11-11.15,18.94-8s11.43,10.46,8.42,18.72c-3.75,10.31-8,20.43-12.06,30.63C200.27,248.08,199.61,250.11,198.47,253.34Z"/><path class="cls-1" d="M310.34,39.89c3.59-4.79,6.48-8.62,9.25-12.3.69,0,1.06-.11,1.33,0,2.66,1.26,5.82,4.16,7.86,3.51,3.58-1.15,6.84-4.12,9.48-7,1.08-1.17.71-4.33.06-6.27-1.08-3.22-.55-4.91,2.79-6s6.71-2.77,10.54-4.4c2.15,5.7,4.65,9,11.94,7.75,6.73-1.18,8.87-4.24,9.08-10.63,4.87.58,9.34.78,13.6,1.84,1.14.28,2.45,3.29,2.25,4.87-.47,3.81.9,5.67,4.47,6.3a3.05,3.05,0,0,1,.46.2c8.45,3.08,8.45,3.08,15.32-3.06,1.87,1.39,3.84,2.83,5.8,4.3s4,3,5.89,4.49a6.75,6.75,0,0,1-.22,1.67c-1.09,2.38-3.74,5.4-3.05,7a34.3,34.3,0,0,0,7.73,10.25c1,.95,4.05.25,5.93-.39,2.55-.88,4-.64,5,2.08,1.33,3.73,2.95,7.35,4.35,10.77a5.74,5.74,0,0,1-.8,1.21c-2.18,1.64-6,3-6.26,4.93a28.1,28.1,0,0,0,1.36,12.22c.45,1.42,3.67,2.35,5.78,2.79,2.45.51,3.58,1.2,2.87,3.92a31.85,31.85,0,0,0-.47,5.46c-.37,4.52-1.4,8.09-7.38,7.17-1.28-.19-3,1.76-4.34,2.88-.44.36-.45,1.23-.69,1.85-3.27,8.52-3.27,8.52,3,15.33-2.57,3.47-5.05,7.17-8,10.49-.61.7-3.24.63-4.16-.09-3.89-3-7.13-2.62-10.29,1a7.82,7.82,0,0,1-2.4,1.78c-3.65,1.81-4.66,4.4-2.74,8.1,1.72,3.31.44,5.15-2.92,6.3s-6.42,2.65-9.45,3.93c-.56-.34-.93-.45-1.1-.69-1.66-2.45-3-6.61-5-7-3.86-.76-8.29.17-12.18,1.37-1.44.45-2.54,3.57-2.9,5.62-.59,3.44-1.87,4.76-5.34,3.46a12.6,12.6,0,0,0-3.45-.4c-7.52-.52-7.37-.52-7.93-8a6,6,0,0,0-2.89-4.25c-9.16-4.31-9.21-4.21-17.21,3-3.41-2.55-7.11-5-10.37-8-.72-.66-.46-3.49.36-4.57,2.82-3.76,2.54-6.4-.49-10.33-3.62-4.71-6.74-7.4-12.56-4.14-.64.36-2.43,0-2.66-.45a97.91,97.91,0,0,1-5.16-12.37c-.2-.62,2.26-2.52,3.78-3.18,3.66-1.6,5.3-3.82,3.54-7.77a2.86,2.86,0,0,1-.21-1.47c1-6.22-2.17-8.84-8-9.23a12.65,12.65,0,0,1-2.81-.93c.27-2.68.57-5.13.77-7.59.59-7.18.64-7.07,7.93-7.39,1.52-.06,3-1.85,4.44-2.86.12-.08.14-.29.22-.44C317,50.14,320,43.9,310.34,39.89Zm48.78-5.81c3.6,8.41,6.86,16.19,10.3,23.89a5.81,5.81,0,0,0,2.83,2.61c3.72,1.67,7.52,3.22,11.39,4.52a6.78,6.78,0,0,0,4.29-.17c6.78-2.71,13.45-5.7,20.21-8.45,2.81-1.14,2.91-2.59,1.37-4.94a42,42,0,0,0-17.34-15.33C381.82,31.32,371.13,29.55,359.12,34.08ZM393,114c18-6.77,29.6-35.86,20.58-51.54-7.79,3.32-15.7,6.62-23.52,10.12a6,6,0,0,0-2.35,3c-1.57,3.43-3,6.93-4.34,10.46-.45,1.19-.88,2.77-.46,3.82C386.19,98,389.65,106,393,114Zm-7.25,3c-1.67-4.11-3.13-8-4.78-11.73-3.14-7.23-4.82-14.88-15-17.07-4.87-1-8.62-2.35-13.28-.06-6,2.94-12.3,5.38-18.42,8C341.26,113.78,367.85,125.17,385.78,117.05ZM352.11,37.3C333.78,45.39,325.12,68,329.73,86c.75,2.93,2.5,2.67,4.52,1.82,6.73-2.83,13.47-5.63,20.1-8.68a7.65,7.65,0,0,0,3.09-3.53c1.57-3.24,2.9-6.61,4.14-10,.48-1.33,1.05-3.06.59-4.22C359,53.39,355.57,45.5,352.11,37.3Zm27.37,38.52a6.88,6.88,0,1,0-13.74-.08,6.87,6.87,0,0,0,6.52,6.86A7.12,7.12,0,0,0,379.48,75.82Z"/><path class="cls-1" d="M292.51,79.65c-3.13,5.31-6.2,10.43-9.15,15.61-1.49,2.61-3.46,2.23-5.48,1-4.85-2.84-8.87-2.57-13.35,1.45-2.83,2.54-4.27,4.74-3.77,8.38.3,2.1.36,4.23.56,6.72L241,117.94a14.38,14.38,0,0,1-1.5-3.11c-1.35-7.78-7.23-9.28-13.56-9.13-2.09,0-4.59,2.31-6,4.22-2.7,3.49-5.07,4.65-8.94,1.59a46.8,46.8,0,0,0-9.39-5.64c-3.67-1.69-3.67-3.8-2.26-7.13,2.67-6.34,1.36-11.66-4.28-15.29-2-1.31-5.5-1.16-8.1-.64-3.58.7-4.89-.56-5.45-3.76-.37-2.12-1.08-4.18-1.56-6.28-.73-3.22-2.66-6.93-1.68-9.53.83-2.2,5.08-3.08,7.79-4.6,3.94-2.2,4.79-12.51,1.33-15.76-6.18-5.79-6.18-5.79-1.85-12.94,2.07-3.41,4.15-6.8,6.35-10.39a16.56,16.56,0,0,1,3.86,1.15C200.77,23.75,205,23,209.49,19c2.33-2.12,3.56-3.66,3.2-7-.84-7.79-.61-7.82,6.78-9.7,1.45-.37,2.89-.76,4.34-1.11,8.53-2.09,8.53-2.09,12.6,5.81,2.2,4.27,12.66,5.68,15.85,2.14,5.71-6.33,5.71-6.33,13-2,.72.42,1.46.81,2.18,1.22C275.55,13,275.55,13,272.84,22c-1.46,4.87,4.91,12.69,10,12.25,8.1-.7,8.1-.7,10.26,7.38.3,1.12.58,2.25.85,3.38,2.19,9,2.19,9-5.91,13.2-3.76,2-5.58,11.7-2.64,14.79C287.53,75.28,290,77.29,292.51,79.65ZM208.67,58.34a28.37,28.37,0,0,0,28.24,28.75c15.2,0,28.41-13.12,28.53-28.37A28.44,28.44,0,0,0,237.31,30.3C220.84,30.26,208.69,42.16,208.67,58.34Z"/><path class="cls-1" d="M175,86.58l-6.42,13.82c-.7.12-1.13.34-1.32.2-7.46-5.31-13.24-3.3-18.78,3.45-2.17,2.66-5.94,4.29-9.29,5.63-3.57,1.43-5.67,3.08-4.53,7.23.3,1.1,0,2.33.14,3.49.29,2.6-.48,4.19-3.4,4.24a34.35,34.35,0,0,0-3.44.59c-8.6,1-8.83.9-9.53-7.52-.25-3.07-1.5-4.43-4.59-5.46-5.75-1.93-11.61-4.15-16.64-7.44-3.82-2.49-6.33-2.61-9.51.26a49.59,49.59,0,0,1-5.2,3.57c-3-4.22-6-8.32-9.24-12.94,2.48-1.86,4.59-3.64,6.91-5.12s2.93-3.13,2-5.84c-2.23-6.68-3.44-13.45-2-20.6.29-1.43-1.34-3.78-2.74-4.9-2-1.62-4.63-2.49-7.64-4,2-4.3,3.69-8.56,5.89-12.55.4-.74,3.17-1.1,4-.49,5.63,3.91,9.44,2.17,13.85-2.53C97,36,101.8,33.4,106.43,31.33c3.54-1.59,4.29-3.52,3.78-6.89-1-6.91-1-6.92,5.53-7.38,9-.64,9-.62,11.06,8.4a5.88,5.88,0,0,0,2.94,3.3c6.62,3.29,13.31,6.45,20.09,9.41a6.45,6.45,0,0,0,4.79,0c2.51-1.21,4.69-3.1,7.56-5.08l9,12.76c-.35.69-.42,1.16-.65,1.26-7.73,3.36-9.43,8.56-6.46,16.56,1.47,4,1,9,.31,13.31-.53,3.41.29,4.93,3.21,6.08C169.88,84,172.06,85.18,175,86.58Zm-77.33-16c0,14.18,11,25.41,24.75,25.22a25.38,25.38,0,0,0,25-24.84c.13-13.53-11.61-25.39-25.09-25.33A24.9,24.9,0,0,0,97.65,70.56Z"/><path class="cls-1" d="M222.43,197.74c-.15-19.66,16-36.46,35.26-36.61,21.42-.17,37.9,15.64,38,36.47.12,19.75-16.06,36.7-35.14,36.81C238.64,234.53,222.59,219.1,222.43,197.74Z"/><path class="cls-1" d="M67.23,161.16c19.93,0,36.47,16.33,36.48,36a37,37,0,0,1-37,37.2c-19.82-.12-36.2-16.9-36.13-37A36.32,36.32,0,0,1,67.23,161.16Z"/><path class="cls-1" d="M475.94,197.58c.12,19.88-15.85,36.7-35.85,36.58-22.38-.14-37.22-17.86-36.92-37.09a36.85,36.85,0,0,1,35.2-36.15C458.87,160.16,476.9,177.61,475.94,197.58Z"/></g></g></svg>